P3
63 63
255
252 252 252 252 252 252 252 252 252 252 252 252 251 251 251 251 251 251 251 251 251 251 251 251 251 251 251 251 251 251 251 251 251 251 251 251 251 251 251 251 251 251 251 251 251 251 251 251 252 252 252 252 252 252 252 252 252 252 252 252 252 252 252 252 252 252 252 252 252 252 252 252 252 252 252 252 252 252 252 252 252 252 252 252 252 252 252 252 252 252 252 252 252 252 252 252 252 252 252 252 252 252 252 252 252 252 252 252 252 252 252 252 252 252 252 252 252 252 252 252 252 252 252 252 252 252 252 252 252 252 252 252 252 252 252 252 252 252 252 252 252 252 252 252 252 252 252 252 252 252 252 252 252 252 252 252 252 252 252 252 252 252 252 252 252 252 252 252 252 252 252 252 252 252 252 252 252 252 252 252 252 252 252 252 252 252 252 252 252 
252 252 252 251 251 251 251 251 251 251 251 251 252 252 252 252 252 252 252 252 252 252 252 252 252 252 252 252 252 252 252 252 252 252 252 252 252 252 252 252 252 252 252 252 252 252 252 252 252 252 252 252 252 252 252 252 252 252 252 252 252 252 252 252 252 252 252 252 252 252 252 252 252 252 252 252 252 252 252 252 252 252 252 252 252 252 252 252 252 252 252 252 252 252 252 252 252 252 252 252 252 252 252 252 252 252 252 252 252 252 252 252 252 252 252 252 252 252 252 252 252 252 252 252 252 252 252 252 252 252 252 252 252 252 252 252 252 252 252 252 252 252 252 252 252 252 252 252 252 252 252 252 252 252 252 252 252 252 252 252 252 252 252 252 252 252 252 252 252 252 252 252 252 252 252 252 252 252 252 252 252 252 252 252 252 252 252 252 252 
252 252 252 251 251 251 251 251 251 251 251 251 252 252 252 252 252 252 252 252 252 252 252 252 252 252 252 252 252 252 252 252 252 252 252 252 252 252 252 252 252 252 252 252 252 252 252 252 252 252 252 252 252 252 252 252 252 252 252 252 252 252 252 252 252 252 252 252 252 252 252 252 252 252 252 252 252 252 252 252 252 252 252 252 252 252 252 252 252 252 252 252 252 252 252 252 252 252 252 252 252 252 252 252 252 252 252 252 252 252 252 252 252 252 252 252 252 252 252 252 252 252 252 252 252 252 252 252 252 252 252 252 252 252 252 252 252 252 252 252 252 252 252 252 252 252 252 252 252 252 252 252 252 252 252 252 252 252 252 252 252 252 252 252 252 252 252 252 252 252 252 252 252 252 252 252 252 252 252 252 252 252 252 252 252 252 252 252 252 
252 252 252 251 251 251 251 251 251 251 251 251 252 252 252 252 252 252 252 252 252 252 252 252 252 252 252 252 252 252 252 252 252 252 252 252 252 252 252 252 252 252 252 252 252 252 252 252 252 252 252 252 252 252 252 252 252 252 252 252 252 252 252 252 252 252 252 252 252 252 252 252 252 252 252 252 252 252 252 252 252 252 252 252 252 252 252 252 252 252 252 252 252 252 252 252 252 252 252 252 252 252 252 252 252 252 252 252 252 252 252 252 252 252 252 252 252 252 252 252 252 252 252 252 252 252 252 252 252 252 252 252 252 252 252 252 252 252 252 252 252 252 252 252 252 252 252 252 252 252 252 252 252 252 252 252 252 252 252 252 252 252 252 252 252 252 252 252 252 252 252 252 252 252 252 252 252 252 252 252 252 252 252 252 252 252 252 252 252 
251 251 251 252 252 252 252 252 252 252 252 252 251 251 251 251 251 251 251 251 251 251 251 251 251 251 251 251 251 251 251 251 251 251 251 251 251 251 251 251 251 251 251 251 251 251 251 251 252 252 252 252 252 252 251 251 251 251 251 251 251 251 251 251 251 251 251 251 251 251 251 251 251 251 251 251 251 251 251 251 251 251 251 251 251 251 251 251 251 251 251 251 251 251 251 251 251 251 251 251 251 251 251 251 251 251 251 251 251 251 251 251 251 251 251 251 251 251 251 251 251 251 251 251 251 251 251 251 251 251 251 251 251 251 251 251 251 251 251 251 251 251 251 251 251 251 251 251 251 251 251 251 251 251 251 251 251 251 251 251 251 251 251 251 251 251 251 251 251 251 251 252 252 252 252 252 252 252 252 252 252 252 252 252 252 252 252 252 252 
251 251 251 252 252 252 252 252 252 252 252 252 251 251 251 251 251 251 251 251 251 251 251 251 251 251 251 251 251 251 251 251 251 251 251 251 251 251 251 251 251 251 251 251 251 251 251 251 252 252 252 252 251 251 251 251 251 251 251 251 251 251 251 251 251 251 251 251 251 251 251 251 251 251 251 251 251 251 251 251 251 251 251 251 251 251 251 251 251 251 251 251 251 251 251 251 251 251 251 251 251 251 251 251 251 251 251 251 251 251 251 251 251 251 251 251 251 251 251 251 251 251 251 251 251 251 251 251 251 251 251 251 251 251 251 251 251 251 251 251 251 251 251 251 251 251 251 251 251 251 251 251 251 251 251 251 251 251 251 251 251 251 251 251 251 251 251 251 251 251 251 252 251 251 252 252 252 252 252 252 252 252 252 252 252 252 252 252 252 
251 251 251 252 252 252 252 252 252 252 252 252 251 251 251 251 251 251 251 251 251 251 251 251 251 251 251 251 251 251 251 251 251 251 251 251 251 251 251 251 251 251 251 251 251 251 251 251 252 251 251 251 251 251 251 251 251 251 251 251 251 250 250 251 250 250 251 250 250 251 250 250 251 250 250 251 250 250 251 250 250 251 250 250 251 250 250 251 250 250 251 250 250 251 250 250 251 250 250 251 250 250 251 250 250 251 250 250 251 250 250 251 250 250 251 250 250 251 250 250 251 250 250 251 250 250 251 250 250 251 250 250 251 250 250 251 250 250 251 250 250 251 250 250 251 250 250 251 250 250 251 250 250 251 250 250 251 250 250 251 250 250 251 250 250 251 251 251 251 251 251 251 251 251 252 251 251 252 252 252 252 252 252 252 252 252 252 252 252 
251 251 251 252 252 252 252 252 252 252 252 252 251 251 251 251 251 251 251 251 251 251 251 251 251 251 251 251 251 251 251 251 251 251 251 251 251 251 251 251 251 251 251 251 251 251 251 251 252 251 251 251 251 251 251 251 251 251 250 250 250 250 250 250 249 249 250 249 249 250 249 249 250 249 249 250 248 249 250 248 249 250 248 249 250 248 249 250 248 249 250 248 249 250 248 249 250 248 249 250 248 249 250 248 249 250 248 249 250 248 249 250 248 249 250 248 249 250 248 249 250 248 249 250 248 249 250 248 249 250 248 249 250 248 249 250 248 249 250 248 249 250 248 249 250 248 249 250 248 249 250 248 249 250 249 249 250 249 249 250 249 249 250 250 250 251 250 250 251 251 251 251 251 251 252 251 251 252 252 252 252 252 252 252 252 252 252 252 252 
251 251 251 252 252 252 252 252 252 252 252 252 251 251 251 251 251 251 251 251 251 251 251 251 251 251 251 251 251 251 251 251 251 251 251 251 251 251 251 251 251 251 251 251 251 251 251 251 252 251 251 251 251 251 251 251 251 251 250 250 250 249 250 250 249 249 250 248 248 250 247 247 250 246 246 250 245 245 250 243 244 250 242 243 250 242 243 250 242 243 250 242 243 250 242 243 250 242 243 250 242 243 250 242 243 250 242 243 250 242 243 250 242 243 250 242 243 250 242 243 250 242 243 250 242 243 250 242 243 250 242 243 250 242 243 250 242 243 250 242 243 250 242 243 250 242 243 250 244 244 250 245 245 250 246 246 250 247 247 250 249 249 250 249 250 251 250 250 251 251 251 251 251 251 252 251 251 252 252 252 252 252 252 252 252 252 252 252 252 
251 251 251 252 252 252 252 252 252 252 252 252 251 251 251 251 251 251 251 251 251 251 251 251 251 251 251 251 251 251 251 251 251 251 251 251 251 251 251 251 251 251 251 251 251 251 251 251 252 251 251 251 251 251 251 251 251 251 250 250 250 249 249 250 248 249 249 247 247 249 244 245 249 239 241 249 235 237 249 231 233 249 228 231 249 228 231 249 228 231 249 228 231 249 228 231 249 228 231 249 228 231 249 228 231 249 228 231 249 228 231 249 228 231 249 228 231 249 228 231 249 228 231 249 228 231 249 228 231 249 228 231 249 228 231 249 228 231 249 228 231 249 228 231 249 228 232 249 232 234 249 236 237 249 240 242 249 245 245 250 247 248 250 249 249 251 250 250 251 251 251 251 251 251 252 251 251 252 252 252 252 252 252 252 252 252 252 252 252 
251 251 251 252 252 252 252 252 252 252 252 252 251 251 251 251 251 251 251 251 251 251 251 251 251 251 251 251 251 251 251 251 251 251 251 251 251 251 251 251 251 251 251 251 251 251 251 251 252 251 251 251 251 251 251 251 251 251 250 250 250 249 249 249 247 248 249 244 245 248 237 239 247 227 230 247 216 221 247 206 213 247 201 208 247 198 206 247 198 206 247 198 206 247 198 206 247 198 206 247 198 206 247 198 206 247 198 206 247 198 206 247 198 206 247 198 206 247 198 206 247 198 206 247 198 206 247 198 206 247 198 206 247 198 206 247 198 206 247 198 206 247 199 206 247 202 209 247 208 214 247 218 222 248 229 232 249 238 240 249 245 246 250 248 249 251 250 250 251 251 251 251 251 251 252 251 251 252 252 252 252 252 252 252 252 252 252 252 252 
251 251 251 252 252 252 252 252 252 252 252 252 251 251 251 251 251 251 251 251 251 251 251 251 251 251 251 251 251 251 251 251 251 251 251 251 251 251 251 251 251 251 251 251 251 251 251 251 252 251 251 251 251 251 251 251 251 251 250 250 250 249 249 249 246 247 248 240 241 248 227 230 246 208 214 246 187 197 245 170 182 245 159 173 245 154 169 245 152 168 245 152 168 245 152 168 245 152 168 245 152 168 245 152 168 245 152 168 245 152 168 245 152 168 245 152 168 245 152 168 245 152 168 245 152 168 245 152 168 245 152 168 245 152 168 245 152 168 245 152 168 245 155 170 245 161 174 245 173 184 246 191 200 247 212 217 248 230 233 249 242 243 250 247 248 251 250 250 251 251 251 251 251 251 252 251 251 252 252 252 252 252 252 252 252 252 252 252 252 
251 251 251 252 252 252 252 252 252 252 252 252 251 251 251 251 251 251 251 251 251 251 251 251 251 251 251 251 251 251 251 251 251 251 251 251 251 251 251 251 251 251 251 251 251 251 251 251 252 251 251 251 251 251 251 251 251 251 250 250 250 248 248 249 244 245 248 234 237 247 216 220 246 186 196 244 154 169 243 127 146 243 110 132 243 103 125 243 100 124 243 100 124 243 100 124 243 100 124 243 100 124 243 100 124 243 100 124 243 100 124 243 100 124 243 100 124 243 100 124 243 100 124 243 100 124 243 100 124 243 100 124 243 100 124 243 100 124 243 100 124 243 104 126 243 113 134 243 132 150 245 160 174 247 193 201 248 220 224 249 237 239 250 246 246 251 249 249 251 251 251 251 251 251 252 251 251 252 252 252 252 252 252 252 252 252 252 252 252 
251 251 251 252 252 252 252 252 252 252 252 252 251 251 251 251 251 251 251 251 251 251 251 251 251 251 251 251 251 251 251 251 251 251 251 251 251 251 251 251 251 251 251 251 251 251 251 251 252 251 251 251 251 251 251 251 251 251 250 250 250 248 248 249 242 244 248 230 233 246 205 212 245 168 180 243 126 145 241 91 115 241 68 97 241 58 89 241 54 86 241 54 86 241 54 86 241 54 86 241 54 86 241 54 86 241 54 86 241 54 86 241 54 86 241 54 86 241 54 86 241 54 86 241 54 86 241 54 86 241 54 86 241 54 86 241 54 86 241 55 86 241 60 90 241 72 100 242 97 120 244 134 152 246 176 187 247 211 217 249 233 236 250 244 246 251 249 249 251 251 251 251 251 251 252 251 251 252 252 252 252 252 252 252 252 252 252 252 252 
251 251 251 252 252 252 252 252 252 252 252 252 251 251 251 251 251 251 251 251 251 251 251 251 251 251 251 251 251 251 251 251 251 251 251 251 251 251 251 251 251 251 251 251 251 251 251 251 252 251 251 251 251 251 251 251 251 251 250 250 250 248 248 249 242 243 248 227 231 246 199 207 244 156 170 242 107 130 241 67 95 241 41 74 241 29 64 241 25 60 241 25 60 241 25 60 241 25 60 241 25 60 241 25 60 241 25 60 241 25 61 241 25 61 241 25 61 241 25 61 241 25 60 241 25 60 241 25 60 241 25 60 241 25 60 241 25 60 241 25 61 241 31 65 241 45 78 241 74 101 243 117 138 245 165 178 247 206 213 249 231 235 250 244 245 251 249 249 251 251 251 251 251 251 252 251 251 252 252 252 252 252 252 252 252 252 252 252 252 
251 251 251 252 252 252 252 252 252 252 252 252 251 251 251 251 251 251 251 251 251 251 251 251 251 251 251 251 251 251 251 251 251 251 251 251 251 251 251 251 251 251 251 251 251 251 251 251 252 251 251 251 251 251 251 251 251 251 250 250 250 248 248 249 242 243 248 226 230 246 195 204 244 150 165 242 99 122 241 55 86 241 28 63 241 14 52 241 10 48 241 10 48 241 9 48 241 9 48 241 10 48 241 10 48 241 10 48 241 10 49 241 10 49 241 10 49 241 10 49 241 10 48 241 10 48 241 10 48 241 9 48 241 9 48 241 10 48 241 10 48 241 16 53 241 32 66 241 63 92 243 108 130 245 160 173 247 202 210 249 231 234 250 244 245 251 249 249 251 251 251 251 251 251 252 251 251 252 252 252 252 252 252 252 252 252 252 252 252 
251 251 251 252 252 252 252 252 252 252 252 252 252 252 252 252 252 252 252 252 252 252 252 252 252 252 252 252 252 252 252 252 252 252 252 252 252 252 252 252 252 252 252 252 252 252 252 252 252 251 251 251 251 251 251 251 251 251 250 250 250 248 248 249 241 243 248 225 230 246 194 204 244 148 164 242 95 120 241 50 82 241 23 58 241 9 47 241 4 43 241 4 43 241 3 43 241 3 43 241 4 43 241 4 43 241 4 44 241 4 44 241 4 44 241 4 44 241 4 44 241 4 43 241 4 43 241 4 43 241 3 43 241 3 43 241 4 43 241 5 44 241 11 49 241 27 62 241 58 88 243 105 128 245 158 172 247 202 210 249 230 234 250 243 245 251 249 249 251 251 251 251 251 251 252 251 251 252 252 252 252 252 252 252 252 252 252 252 252 
251 251 251 252 252 252 252 252 252 252 252 252 252 252 252 252 252 252 252 252 252 252 252 252 252 252 252 252 252 252 252 251 252 252 251 252 252 251 252 252 251 252 252 251 252 252 251 252 252 251 251 251 250 251 251 250 251 251 250 250 250 248 248 249 241 243 248 225 230 246 194 204 244 147 164 242 94 120 241 50 82 241 22 57 241 8 46 241 4 42 241 3 42 241 3 42 241 3 42 241 3 42 241 4 42 241 4 43 241 4 44 241 4 44 241 4 44 241 4 43 241 4 42 241 3 42 241 3 42 241 3 42 241 3 42 241 4 42 241 5 43 241 10 48 241 26 61 241 57 88 243 104 128 245 157 172 247 202 210 249 230 234 250 243 245 251 249 249 251 251 251 251 251 251 252 251 251 252 252 252 252 252 252 252 252 252 252 252 252 
251 251 251 252 252 252 252 252 252 252 252 252 252 252 252 252 252 252 252 252 252 252 252 252 252 252 252 251 251 252 251 251 252 251 251 252 251 251 252 251 251 252 251 251 252 251 251 252 251 251 251 251 250 251 250 249 251 250 249 250 250 247 248 249 241 243 248 225 230 246 194 204 244 147 164 242 94 120 241 50 82 241 22 57 241 8 46 241 3 42 241 3 42 241 2 42 241 2 42 241 3 42 241 3 42 241 3 43 241 3 44 241 3 44 241 3 44 241 3 43 241 3 42 241 3 42 241 2 42 241 2 42 241 3 42 241 3 42 241 4 43 241 10 48 241 26 61 241 57 88 243 104 128 245 157 172 247 202 210 249 230 234 250 243 245 251 249 249 251 251 251 251 251 251 252 251 251 252 252 252 252 252 252 252 252 252 252 252 252 
251 251 251 252 252 252 252 252 252 252 252 252 252 252 252 252 252 252 252 252 252 252 252 252 252 251 252 251 251 252 251 251 252 251 251 252 251 251 252 251 251 252 251 251 252 251 251 252 251 250 251 250 250 251 250 249 251 250 248 250 249 247 248 248 241 243 248 225 230 246 194 204 244 147 164 242 94 120 241 49 82 241 21 57 241 8 46 241 3 42 241 3 42 241 2 42 241 2 42 241 3 42 241 3 42 241 3 43 241 3 44 241 3 44 241 3 44 241 3 43 241 3 42 241 3 42 241 2 42 241 2 42 241 3 42 241 3 42 241 3 43 241 10 48 241 26 61 241 57 88 243 104 128 245 157 172 247 202 210 249 230 234 250 243 245 251 249 249 251 251 251 251 251 251 252 251 251 252 252 252 252 252 252 252 252 252 252 252 252 
251 251 251 252 252 252 252 252 252 252 252 252 252 252 252 252 252 252 252 252 252 252 252 252 251 251 252 251 251 252 251 251 252 251 250 252 251 250 252 250 250 252 250 250 252 250 250 252 250 250 251 250 249 251 249 249 251 249 248 250 249 247 248 248 240 243 248 224 230 246 193 204 244 146 164 242 94 120 241 49 82 241 21 57 241 8 46 241 3 42 241 3 42 241 2 42 241 2 42 241 3 42 241 3 42 241 3 43 241 4 44 241 4 44 241 4 44 241 3 43 241 3 42 241 3 42 241 2 42 241 2 42 241 3 42 241 3 42 241 4 43 241 10 48 241 26 61 241 57 88 243 104 128 245 157 172 247 202 210 249 230 234 250 243 245 251 249 249 251 251 251 251 251 251 252 251 251 252 252 252 252 252 252 252 252 252 252 252 252 
251 251 251 252 252 252 252 252 252 252 252 252 252 252 252 252 252 252 252 252 252 252 252 252 251 251 252 251 251 252 251 251 252 251 250 252 250 250 252 250 249 252 250 249 252 250 249 252 250 249 251 249 248 251 248 248 251 248 247 250 248 246 248 247 240 243 247 223 230 245 193 204 244 146 164 242 93 120 240 49 82 240 21 57 240 8 46 240 4 42 240 3 42 241 3 42 241 3 42 241 4 42 241 4 42 241 4 43 241 4 44 241 4 44 241 4 44 241 4 43 241 4 42 241 4 42 241 3 42 241 3 42 241 3 42 241 4 42 241 5 43 241 10 48 241 26 61 241 57 88 243 104 128 245 157 172 247 202 210 249 230 234 250 243 245 251 249 249 251 251 251 251 251 251 252 251 251 252 252 252 252 252 252 252 252 252 252 252 252 
251 251 251 252 252 252 252 252 252 252 252 252 252 252 252 252 252 252 252 252 252 252 252 252 251 251 252 251 251 252 251 251 252 251 250 252 250 249 252 249 249 252 249 248 252 249 247 252 249 246 251 249 245 251 248 245 251 248 243 250 248 241 248 247 235 243 246 220 230 245 189 204 243 144 164 242 92 120 240 48 82 240 21 57 240 8 46 240 4 42 240 3 42 241 3 42 241 3 42 241 4 42 241 4 42 241 4 43 241 4 44 241 4 44 241 4 44 241 4 43 241 4 42 241 4 42 241 3 42 241 3 42 241 3 42 241 4 42 241 5 43 241 10 48 241 26 61 241 57 88 243 104 128 245 157 172 247 202 210 249 230 234 250 244 245 251 249 249 251 251 251 251 251 251 252 251 251 252 252 252 252 252 252 252 252 252 252 252 252 
251 251 251 252 252 252 252 252 252 252 252 252 252 252 252 252 252 252 252 252 252 252 252 252 251 251 252 251 251 252 251 251 252 250 250 252 250 249 252 249 248 252 248 246 252 248 244 252 247 241 251 247 238 251 246 236 251 246 234 250 246 232 248 245 227 243 245 211 230 244 182 204 242 138 164 241 88 120 240 46 82 240 20 57 240 8 46 240 4 42 240 3 42 241 3 42 241 3 42 241 4 42 241 4 42 241 4 43 241 4 44 241 4 44 241 4 44 241 4 43 241 4 42 241 4 42 241 3 42 241 3 42 241 3 42 241 4 42 241 5 43 241 10 48 241 26 61 241 57 88 243 104 128 245 157 172 247 202 210 249 230 234 250 244 245 251 249 249 251 251 251 251 251 251 252 251 251 252 252 252 252 252 252 252 252 252 252 252 252 
251 251 251 252 252 252 252 252 252 252 252 252 252 252 252 252 252 252 252 252 252 252 252 252 251 251 252 251 251 252 251 251 252 250 250 252 249 249 252 249 247 252 248 244 252 247 238 252 246 233 251 245 225 251 244 221 251 244 218 250 244 216 248 243 210 243 243 196 230 242 169 204 241 128 164 239 82 120 239 43 82 239 19 57 239 8 46 240 4 42 240 3 42 241 3 42 241 3 42 241 4 42 241 4 42 241 4 43 241 4 44 241 4 44 241 4 44 241 4 43 241 4 42 241 4 42 241 3 42 241 3 42 241 3 42 241 4 42 241 5 43 241 10 48 241 26 61 241 57 88 243 104 128 245 157 172 247 202 210 249 230 234 250 244 245 251 249 249 251 251 251 251 251 251 252 251 251 252 252 252 252 252 252 252 252 252 252 252 252 
251 251 251 252 252 252 252 252 252 252 252 252 252 252 252 252 252 252 252 252 252 252 252 252 251 251 252 251 251 252 251 251 252 250 250 252 249 248 252 248 246 252 247 240 252 246 232 252 244 220 251 242 209 251 242 201 251 241 197 250 241 193 248 240 188 243 240 176 230 240 151 204 239 115 164 239 74 120 239 39 82 239 17 57 239 7 46 240 4 42 240 3 42 241 3 42 241 3 42 241 4 42 241 4 42 241 4 43 241 4 44 241 4 44 241 4 44 241 4 43 241 4 42 241 3 42 241 3 42 241 3 42 241 3 42 241 3 42 241 5 43 241 10 48 241 26 61 241 57 88 243 104 128 245 157 172 247 202 210 249 230 234 250 243 245 251 249 249 251 251 251 251 251 251 252 251 251 252 252 252 252 252 252 252 252 252 252 252 252 
251 251 251 252 252 252 252 252 252 252 252 252 252 252 252 252 252 252 252 252 252 252 252 252 251 251 252 251 251 252 251 251 252 250 250 252 249 248 252 248 245 252 247 237 252 245 224 252 243 208 251 240 192 251 239 180 251 238 174 250 238 170 248 238 166 243 238 155 230 238 133 204 238 101 164 238 65 120 239 34 82 239 15 57 239 6 46 240 3 42 240 3 42 241 2 42 241 2 42 241 3 42 241 3 42 241 3 43 241 3 44 241 3 44 241 3 44 241 3 43 241 3 42 241 3 42 241 2 42 241 2 42 241 3 42 241 3 42 241 4 43 241 10 48 241 26 61 241 57 88 243 104 128 245 157 172 247 202 210 249 230 234 250 243 245 251 249 249 251 251 251 251 251 251 252 251 251 252 252 252 252 252 252 252 252 252 252 252 252 
251 251 251 252 252 252 252 252 252 252 252 252 252 252 252 252 252 252 252 252 252 252 252 252 251 251 252 251 251 252 251 251 252 250 250 252 249 248 252 248 244 252 246 235 252 244 219 252 241 199 251 239 179 251 236 165 251 236 157 250 236 153 248 236 148 243 236 138 230 236 119 204 236 91 164 238 58 120 238 31 82 238 14 57 239 6 46 239 3 42 240 3 42 240 2 42 240 2 42 240 3 42 240 3 42 240 3 43 240 3 44 240 3 44 240 3 44 240 3 43 240 3 42 240 3 42 240 2 42 240 2 42 240 3 42 240 3 42 240 3 43 241 10 48 241 26 61 241 57 88 243 104 128 245 157 172 247 202 210 249 230 234 250 243 245 251 249 249 251 251 251 251 251 251 252 251 251 252 252 252 252 252 252 252 252 252 252 252 252 
251 251 251 252 252 252 252 252 252 252 252 252 252 252 252 252 252 252 252 252 252 252 252 252 251 251 252 251 251 252 251 251 252 250 250 252 249 248 252 248 244 252 246 234 252 244 216 252 241 193 251 238 171 251 236 155 251 235 147 250 235 142 248 235 137 243 235 128 230 235 111 204 236 84 164 237 54 120 237 29 82 238 14 57 239 6 46 239 4 42 239 3 42 239 3 42 240 3 42 240 4 42 240 4 42 240 4 43 240 4 44 240 4 44 240 4 44 240 4 43 240 4 42 240 4 42 240 3 42 240 3 42 240 3 42 240 4 42 240 4 43 241 10 48 241 26 61 241 57 88 243 104 128 245 157 172 247 202 210 249 230 234 250 243 245 251 249 249 251 251 251 251 251 251 252 251 251 252 252 252 252 252 252 252 252 252 252 252 252 
251 251 251 252 252 252 252 252 252 252 252 252 252 252 252 252 252 252 252 252 252 252 252 252 251 251 252 251 251 252 251 251 252 250 250 252 249 248 252 248 244 252 246 233 252 244 214 252 241 191 251 238 169 251 236 151 251 235 142 250 235 138 248 235 134 243 235 125 230 235 107 204 236 82 164 236 53 120 237 29 82 238 14 57 239 6 46 239 4 43 239 3 43 239 3 43 240 3 43 240 4 43 240 4 43 240 4 43 240 4 44 240 4 44 240 4 44 240 4 44 240 4 43 240 4 43 240 3 43 240 3 43 240 3 43 240 4 43 240 5 43 241 10 48 241 27 61 241 57 88 243 104 128 245 157 172 247 202 210 249 230 234 250 243 245 251 249 249 251 251 251 251 251 251 252 251 251 252 252 252 252 252 252 252 252 252 252 252 252 
251 251 251 252 252 252 252 252 252 252 252 252 252 252 252 252 252 252 252 252 252 252 252 252 251 251 252 251 251 252 251 251 252 250 250 252 249 248 252 248 244 252 246 233 252 244 214 252 241 191 251 238 168 251 236 151 251 235 142 250 235 137 248 235 133 243 235 124 230 235 106 204 236 82 164 236 53 120 237 29 83 238 14 60 238 8 49 238 5 45 238 5 44 239 4 44 239 4 44 239 5 44 239 5 44 239 5 44 239 5 45 239 5 45 239 5 45 239 5 45 239 5 44 239 5 44 239 5 44 240 4 44 240 5 44 240 5 44 240 7 45 241 13 50 241 28 63 241 59 90 243 105 128 245 158 173 247 202 210 249 230 234 250 243 245 251 249 249 251 251 251 251 251 251 252 251 251 252 252 252 252 252 252 252 252 252 252 252 252 
251 251 251 252 252 252 252 252 252 252 252 252 252 252 252 252 252 252 252 252 252 252 252 252 251 251 252 251 251 252 251 251 252 250 250 252 249 248 252 248 244 252 246 233 252 244 214 252 241 191 251 238 168 251 236 151 251 235 142 250 235 137 248 235 133 243 235 124 230 235 107 204 235 83 167 236 55 124 236 32 88 237 18 66 237 11 55 238 9 51 238 9 51 239 9 51 239 9 51 239 9 51 239 9 51 239 9 51 239 9 52 239 9 52 239 10 52 239 10 52 239 11 51 239 11 51 239 12 51 239 12 51 240 13 51 240 13 51 240 15 51 241 20 56 241 35 69 241 65 94 243 110 132 245 161 175 247 204 210 249 231 234 250 244 245 251 249 249 251 251 251 251 251 251 252 251 251 252 252 252 252 252 252 252 252 252 252 252 252 
251 251 251 252 252 252 252 252 252 252 252 252 252 252 252 252 252 252 252 252 252 252 252 252 251 251 252 251 251 252 251 251 252 250 250 252 249 248 252 248 244 252 246 233 252 244 214 252 241 191 251 238 168 251 236 151 251 235 142 250 235 137 248 235 133 244 235 125 231 235 110 208 235 87 173 236 61 134 236 41 102 236 27 81 237 21 71 237 19 67 238 19 67 238 19 67 238 19 67 238 19 67 238 19 67 238 19 67 238 19 68 238 19 68 238 21 68 238 22 68 239 24 67 239 27 67 239 29 67 239 31 67 240 32 67 240 32 67 240 34 68 241 39 72 241 52 84 241 80 107 243 121 141 245 168 180 247 207 213 249 232 235 250 244 245 251 249 249 251 251 251 251 251 251 252 251 251 252 252 252 252 252 252 252 252 252 252 252 252 
251 251 251 252 252 252 252 252 252 252 252 252 252 252 252 252 252 252 252 252 252 252 252 252 251 251 252 251 251 252 251 251 252 250 250 252 249 248 252 248 244 252 246 233 252 244 214 252 241 191 251 238 168 251 236 151 251 235 142 250 235 137 248 235 133 245 235 126 234 235 113 214 235 94 185 235 73 152 235 56 125 236 45 107 236 40 99 236 38 98 236 38 98 237 38 98 237 38 98 237 38 98 237 38 98 237 38 98 237 38 98 237 38 98 237 41 98 238 44 98 239 50 98 239 56 98 240 61 98 240 64 98 241 66 98 241 67 98 241 69 98 242 73 100 242 84 110 242 107 130 244 141 158 246 181 191 247 214 219 249 235 237 250 245 246 251 249 249 251 251 251 251 251 251 252 251 251 252 252 252 252 252 252 252 252 252 252 252 252 
251 251 251 252 252 252 252 252 252 252 252 252 252 252 252 252 252 252 252 252 252 252 252 252 251 251 252 251 251 252 251 251 252 250 250 252 249 248 252 248 244 252 246 233 252 244 214 252 241 191 251 238 168 251 236 151 251 235 142 250 235 137 248 235 134 245 235 129 238 235 120 223 235 106 202 235 90 178 235 78 158 235 70 146 235 65 140 235 64 138 236 64 138 236 64 138 236 64 138 236 64 138 236 64 138 236 64 138 236 65 138 236 66 138 236 69 138 238 75 138 239 85 138 240 96 138 241 106 138 242 111 138 243 114 138 243 116 138 243 117 138 244 120 140 244 128 148 244 145 161 245 170 183 247 199 206 248 223 227 249 239 240 250 246 246 251 249 249 251 251 251 251 251 251 252 251 251 252 252 252 252 252 252 252 252 252 252 252 252 
251 251 251 252 252 252 252 252 252 252 252 252 252 252 252 252 252 252 252 252 252 252 252 252 251 251 252 251 251 252 251 251 252 250 250 252 249 248 252 248 244 252 246 233 252 244 214 252 241 191 251 238 168 251 236 151 251 235 142 250 235 138 249 235 135 247 235 131 242 235 125 233 235 117 220 235 108 205 235 100 193 235 95 185 235 93 182 235 93 181 235 93 181 235 93 181 235 93 181 235 93 181 235 93 181 235 93 181 235 93 181 235 94 181 236 98 181 237 108 181 239 122 181 241 138 181 242 152 181 244 161 181 244 165 181 245 167 181 245 168 181 246 170 182 246 175 187 246 185 196 247 200 208 247 218 223 249 232 235 249 242 243 250 247 248 251 250 250 251 251 251 251 251 251 252 251 251 252 252 252 252 252 252 252 252 252 252 252 252 
251 251 251 252 252 252 252 252 252 252 252 252 252 252 252 252 252 252 252 252 252 252 252 252 251 251 252 251 251 252 251 251 252 250 250 252 249 248 252 248 244 252 246 233 252 244 214 252 241 191 251 238 168 251 236 151 251 235 142 250 235 138 249 235 135 248 235 133 245 235 130 241 235 126 234 235 121 227 235 118 221 235 116 217 235 115 216 235 115 216 235 115 216 235 115 216 235 115 216 235 115 216 235 115 216 235 115 216 235 115 216 235 117 216 236 122 216 237 134 216 239 152 216 242 172 216 244 190 216 245 201 216 246 205 216 247 207 216 247 208 216 247 209 216 248 212 218 248 217 222 248 225 228 248 233 235 249 241 242 250 246 246 250 248 249 251 250 250 251 251 251 251 251 251 252 251 251 252 252 252 252 252 252 252 252 252 252 252 252 
251 251 251 252 252 252 252 252 252 252 252 252 252 252 252 252 252 252 252 252 252 252 252 252 251 251 252 251 251 252 251 251 252 250 250 252 249 248 252 248 244 252 246 233 252 244 214 252 241 191 251 238 168 251 236 151 251 235 142 250 235 138 250 235 136 249 235 135 247 235 134 246 235 132 243 235 131 240 235 129 237 235 128 236 235 128 236 235 128 236 235 128 236 235 128 236 235 128 236 235 128 236 235 128 236 235 128 236 235 128 236 235 131 236 236 137 236 237 150 236 239 170 236 242 193 236 245 212 236 247 224 236 248 230 236 248 232 236 248 233 236 249 234 236 250 235 237 250 237 238 250 240 240 250 242 243 250 246 246 250 248 248 250 249 250 251 250 250 251 251 251 251 251 251 252 251 251 252 252 252 252 252 252 252 252 252 252 252 252 
251 251 251 252 252 252 252 252 252 252 252 252 252 252 252 252 252 252 252 252 252 252 252 252 251 251 252 251 251 252 251 251 252 250 250 252 249 248 252 248 244 252 246 233 252 244 214 252 241 191 251 238 168 251 236 151 251 235 142 250 235 138 250 235 136 249 235 136 249 235 136 249 235 135 248 235 135 247 235 135 246 235 135 246 235 135 246 235 135 246 235 135 246 235 135 246 235 135 246 235 135 246 235 135 246 235 135 246 235 135 246 235 136 246 236 143 246 237 157 246 240 178 246 243 202 246 245 222 246 247 236 246 248 241 246 249 243 246 249 244 246 249 244 246 250 245 246 250 245 246 250 247 247 250 247 248 250 248 249 250 249 249 250 250 250 251 250 250 251 251 251 251 251 251 252 251 251 252 252 252 252 252 252 252 252 252 252 252 252 
251 251 251 252 252 252 252 252 252 252 252 252 252 252 252 252 252 252 252 252 252 252 252 252 251 251 252 251 251 252 251 251 252 250 250 252 249 248 252 248 244 252 246 233 252 244 214 252 241 191 251 238 168 251 236 151 251 235 142 251 235 138 250 235 137 250 235 137 250 235 137 250 235 137 250 235 137 250 235 137 250 235 137 250 235 137 250 235 137 250 235 137 250 235 137 250 235 137 250 235 137 250 235 137 250 235 137 250 235 137 250 235 139 250 236 145 250 237 160 250 240 181 250 243 206 250 245 226 250 247 239 250 249 245 250 249 247 250 250 248 250 250 248 250 251 249 250 251 249 250 251 250 250 251 250 250 251 250 250 251 250 250 251 250 250 251 251 251 251 251 251 251 251 251 252 251 251 252 252 252 252 252 252 252 252 252 252 252 252 
251 251 251 252 252 252 252 252 252 252 252 252 252 252 252 252 252 252 252 252 252 252 252 252 251 251 252 251 251 252 251 251 252 250 250 252 249 248 252 248 244 252 246 233 252 244 214 252 241 191 252 238 168 251 236 151 251 235 142 251 235 138 251 235 138 251 235 138 251 235 138 251 235 138 251 235 138 251 235 138 251 235 138 251 235 138 251 235 138 251 235 138 251 235 138 251 235 138 251 235 138 251 235 138 251 235 138 251 235 138 251 235 139 251 236 146 251 237 161 251 240 182 251 243 207 251 246 227 251 248 240 251 249 247 251 250 249 251 250 250 251 250 250 251 251 250 251 251 251 251 251 251 251 251 251 251 251 251 251 251 251 251 251 251 251 251 251 251 251 251 251 252 251 251 252 252 252 252 252 252 252 252 252 252 252 252 252 252 252 
251 251 251 252 252 252 252 252 252 252 252 252 252 252 252 252 252 252 252 252 252 252 252 252 251 251 252 251 251 252 251 251 252 250 250 252 249 248 252 248 244 252 246 233 252 244 214 252 241 191 252 238 168 252 236 151 251 235 142 251 235 138 251 235 138 251 235 138 251 235 138 251 235 138 251 235 138 251 235 138 251 235 138 251 235 138 251 235 138 251 235 138 251 235 138 251 235 138 251 235 138 251 235 138 251 235 138 251 235 138 251 235 140 251 236 146 251 237 161 251 240 183 251 244 207 251 247 228 251 249 241 251 249 247 251 250 249 251 250 250 251 250 250 251 251 251 251 251 251 251 251 251 251 251 251 251 251 251 251 251 251 251 251 251 251 251 251 251 251 251 251 252 252 252 252 252 252 252 252 252 252 252 252 252 252 252 252 252 252 
251 251 251 252 252 252 252 252 252 252 252 252 252 252 252 252 252 252 252 252 252 252 252 252 251 251 252 251 251 252 251 251 252 250 250 252 249 248 252 248 244 252 246 233 252 244 214 252 241 191 252 238 168 252 236 151 252 235 142 252 235 139 252 235 138 252 235 138 252 235 138 252 235 138 252 235 138 252 235 138 252 235 138 252 235 138 252 235 138 252 235 138 252 235 138 252 235 138 252 235 138 252 235 138 252 235 138 252 235 138 252 235 140 252 236 147 252 237 162 252 241 183 252 244 208 252 247 228 252 249 241 252 250 248 252 251 250 252 251 251 252 251 251 252 252 251 252 252 252 252 252 252 252 252 252 252 252 252 252 252 252 252 252 252 252 252 252 252 252 252 252 252 252 252 252 252 252 252 252 252 252 252 252 252 252 252 252 252 252 
251 251 251 252 252 252 252 252 252 252 252 252 252 252 252 252 252 252 252 252 252 252 252 252 251 251 252 251 251 252 251 251 252 250 250 252 249 248 252 248 244 252 246 233 252 244 214 252 241 191 252 238 168 252 236 152 252 235 142 252 235 140 252 235 139 252 235 139 252 235 139 252 235 139 252 235 139 252 235 139 252 235 139 252 235 139 252 235 139 252 235 139 252 235 139 252 235 139 252 235 139 252 235 139 252 235 139 252 235 139 252 235 141 252 236 148 252 237 163 252 241 184 252 244 208 252 247 228 252 249 241 252 250 248 252 251 250 252 251 251 252 251 251 252 252 251 252 252 252 252 252 252 252 252 252 252 252 252 252 252 252 252 252 252 252 252 252 252 252 252 252 252 252 252 252 252 252 252 252 252 252 252 252 252 252 252 252 252 252 
251 251 251 252 252 252 252 252 252 252 252 252 252 252 252 252 252 252 252 252 252 252 252 252 251 251 252 251 251 252 251 251 252 250 250 252 249 248 252 248 244 252 246 233 252 244 215 252 241 193 252 238 170 252 236 153 252 235 145 252 235 142 252 235 142 252 235 142 252 235 142 252 235 142 252 235 142 252 235 142 252 235 142 252 235 142 252 235 142 252 235 142 252 235 142 252 235 142 252 235 142 252 235 142 252 235 142 252 235 142 252 235 144 252 236 150 252 237 164 252 241 185 252 244 208 252 247 229 252 249 241 252 250 248 252 251 250 252 251 251 252 251 251 252 252 251 252 252 252 252 252 252 252 252 252 252 252 252 252 252 252 252 252 252 252 252 252 252 252 252 252 252 252 252 252 252 252 252 252 252 252 252 252 252 252 252 252 252 252 
251 251 251 252 252 252 252 252 252 252 252 252 252 252 252 252 252 252 252 252 252 252 252 252 251 251 252 251 251 252 251 251 252 250 250 252 249 248 252 248 244 252 246 234 252 244 218 252 241 196 252 238 176 252 237 160 252 236 153 252 236 150 252 236 149 252 236 149 252 236 149 252 236 149 252 236 149 252 236 149 252 236 149 252 236 149 252 236 149 252 236 149 252 236 149 252 236 149 252 236 149 252 236 149 252 236 149 252 236 149 252 236 151 252 236 157 252 238 170 252 241 190 252 244 211 252 247 230 252 249 242 252 250 248 252 251 250 252 251 251 252 251 251 252 252 251 252 252 252 252 252 252 252 252 252 252 252 252 252 252 252 252 252 252 252 252 252 252 252 252 252 252 252 252 252 252 252 252 252 252 252 252 252 252 252 252 252 252 252 
251 251 251 252 252 252 252 252 252 252 252 252 252 252 252 252 252 252 252 252 252 252 252 252 251 251 252 251 251 252 251 251 252 250 250 252 249 248 252 248 245 252 246 236 252 244 222 252 242 204 252 240 187 252 238 174 252 238 167 252 238 165 252 238 165 252 238 165 252 238 165 252 238 165 252 238 165 252 238 165 252 238 165 252 238 165 252 238 165 252 238 165 252 238 165 252 238 165 252 238 165 252 238 165 252 238 165 252 238 165 252 238 166 252 238 171 252 239 182 252 241 199 252 244 217 252 247 232 252 249 242 252 250 248 252 251 250 252 251 251 252 251 251 252 252 251 252 252 252 252 252 252 252 252 252 252 252 252 252 252 252 252 252 252 252 252 252 252 252 252 252 252 252 252 252 252 252 252 252 252 252 252 252 252 252 252 252 252 252 
251 251 251 252 252 252 252 252 252 252 252 252 252 252 252 252 252 252 252 252 252 252 252 252 251 251 252 251 251 252 251 251 252 250 250 252 249 248 252 249 245 252 247 240 252 245 229 252 244 215 252 242 202 252 241 193 252 241 189 252 241 187 252 241 187 252 241 187 252 241 187 252 241 187 252 241 187 252 241 187 252 241 187 252 241 187 252 241 187 252 241 187 252 241 187 252 241 187 252 241 187 252 241 187 252 241 187 252 241 187 252 241 187 252 241 191 252 241 200 252 243 211 252 245 225 252 247 237 252 249 244 252 250 248 252 251 250 252 251 251 252 251 251 252 252 251 252 252 252 252 252 252 252 252 252 252 252 252 252 252 252 252 252 252 252 252 252 252 252 252 252 252 252 252 252 252 252 252 252 252 252 252 252 252 252 252 252 252 252 
251 251 251 252 252 252 252 252 252 252 252 252 252 252 252 252 252 252 252 252 252 252 252 252 251 251 252 251 251 252 251 251 252 250 250 252 250 248 252 249 246 252 248 243 252 247 236 252 246 228 252 245 219 252 244 214 252 244 211 252 244 211 252 244 211 252 244 211 252 244 211 252 244 211 252 244 211 252 244 211 252 244 211 252 244 211 252 244 211 252 244 211 252 244 211 252 244 211 252 244 211 252 244 211 252 244 211 252 244 211 252 244 211 252 244 213 252 244 218 252 245 225 252 246 234 252 248 241 252 249 246 252 250 249 252 251 250 252 251 251 252 251 251 252 252 251 252 252 252 252 252 252 252 252 252 252 252 252 252 252 252 252 252 252 252 252 252 252 252 252 252 252 252 252 252 252 252 252 252 252 252 252 252 252 252 252 252 252 252 
251 251 251 252 252 252 252 252 252 252 252 252 252 252 252 252 252 252 252 252 252 252 252 252 251 251 252 251 251 252 251 251 252 250 250 252 250 249 252 249 248 252 249 245 252 248 243 252 247 239 252 247 234 252 247 231 252 247 230 252 247 230 252 247 230 252 247 230 252 247 230 252 247 230 252 247 230 252 247 230 252 247 230 252 247 230 252 247 230 252 247 230 252 247 230 252 247 230 252 247 230 252 247 230 252 247 230 252 247 230 252 247 230 252 247 231 252 247 233 252 247 237 252 248 241 252 249 245 252 250 247 252 250 249 252 251 250 252 251 251 252 251 251 252 252 251 252 252 252 252 252 252 252 252 252 252 252 252 252 252 252 252 252 252 252 252 252 252 252 252 252 252 252 252 252 252 252 252 252 252 252 252 252 252 252 252 252 252 252 
251 251 251 252 252 252 252 252 252 252 252 252 252 252 252 252 252 252 252 252 252 252 252 252 251 251 252 251 251 252 251 251 252 251 250 252 250 249 252 250 249 252 249 248 252 249 247 252 249 245 252 249 243 252 249 242 252 249 242 252 249 242 252 249 242 252 249 242 252 249 242 252 249 242 252 249 242 252 249 242 252 249 242 252 249 242 252 249 242 252 249 242 252 249 242 252 249 242 252 249 242 252 249 242 252 249 242 252 249 242 252 249 242 252 249 242 252 249 243 252 249 244 252 249 246 252 249 247 252 250 249 252 250 250 252 251 250 252 251 251 252 251 251 252 252 251 252 252 252 252 252 252 252 252 252 252 252 252 252 252 252 252 252 252 252 252 252 252 252 252 252 252 252 252 252 252 252 252 252 252 252 252 252 252 252 252 252 252 252 
251 251 251 252 252 252 252 252 252 252 252 252 252 252 252 252 252 252 252 252 252 252 252 252 251 251 252 251 251 252 251 251 252 251 250 252 250 250 252 250 249 252 250 249 252 250 249 252 250 248 252 250 248 252 250 248 252 250 248 252 250 248 252 250 248 252 250 248 252 250 248 252 250 248 252 250 248 252 250 248 252 250 248 252 250 248 252 250 248 252 250 248 252 250 248 252 250 248 252 250 248 252 250 248 252 250 248 252 250 248 252 250 248 252 250 248 252 250 248 252 250 248 252 250 249 252 250 249 252 250 250 252 250 250 252 251 251 252 251 251 252 251 251 252 252 251 252 252 252 252 252 252 252 252 252 252 252 252 252 252 252 252 252 252 252 252 252 252 252 252 252 252 252 252 252 252 252 252 252 252 252 252 252 252 252 252 252 252 252 
251 251 251 252 252 252 252 252 252 252 252 252 252 252 252 252 252 252 252 252 252 252 252 252 252 251 252 251 251 252 251 251 252 251 250 252 251 250 252 251 250 252 251 250 252 251 250 252 251 250 252 251 250 252 251 250 252 251 250 252 251 250 252 251 250 252 251 250 252 251 250 252 251 250 252 251 250 252 251 250 252 251 250 252 251 250 252 251 250 252 251 250 252 251 250 252 251 250 252 251 250 252 251 250 252 251 250 252 251 250 252 251 250 252 251 250 252 251 250 252 251 250 252 251 250 252 251 250 252 251 250 252 251 250 252 251 251 252 251 251 252 251 251 252 252 252 252 252 252 252 252 252 252 252 252 252 252 252 252 252 252 252 252 252 252 252 252 252 252 252 252 252 252 252 252 252 252 252 252 252 252 252 252 252 252 252 252 252 252 
251 251 251 252 252 252 252 252 252 252 252 252 252 252 252 252 252 252 252 252 252 252 252 252 252 252 252 251 251 252 251 251 252 251 251 252 251 251 252 251 251 252 251 251 252 251 251 252 251 251 252 251 251 252 251 251 252 251 251 252 251 251 252 251 251 252 251 251 252 251 251 252 251 251 252 251 251 252 251 251 252 251 251 252 251 251 252 251 251 252 251 251 252 251 251 252 251 251 252 251 251 252 251 251 252 251 251 252 251 251 252 251 251 252 251 251 252 251 251 252 251 251 252 251 251 252 251 251 252 251 251 252 251 251 252 251 251 252 251 251 252 252 251 252 252 252 252 252 252 252 252 252 252 252 252 252 252 252 252 252 252 252 252 252 252 252 252 252 252 252 252 252 252 252 252 252 252 252 252 252 252 252 252 252 252 252 252 252 252 
251 251 251 252 252 252 252 252 252 252 252 252 252 252 252 252 252 252 252 252 252 252 252 252 252 252 252 252 251 252 251 251 252 251 251 252 251 251 252 251 251 252 251 251 252 251 251 252 251 251 252 251 251 252 251 251 252 251 251 252 251 251 252 251 251 252 251 251 252 251 251 252 251 251 252 251 251 252 251 251 252 251 251 252 251 251 252 251 251 252 251 251 252 251 251 252 251 251 252 251 251 252 251 251 252 251 251 252 251 251 252 251 251 252 251 251 252 251 251 252 251 251 252 251 251 252 251 251 252 251 251 252 251 251 252 251 251 252 251 251 252 252 252 252 252 252 252 252 252 252 252 252 252 252 252 252 252 252 252 252 252 252 252 252 252 252 252 252 252 252 252 252 252 252 252 252 252 252 252 252 252 252 252 252 252 252 252 252 252 
251 251 251 252 252 252 252 252 252 252 252 252 252 252 252 252 252 252 252 252 252 252 252 252 252 252 252 252 252 252 252 252 252 252 252 252 252 252 252 252 252 252 252 252 252 252 252 252 252 252 252 252 252 252 252 252 252 252 252 252 252 252 252 252 252 252 252 252 252 252 252 252 252 252 252 252 252 252 252 252 252 252 252 252 252 252 252 252 252 252 252 252 252 252 252 252 252 252 252 252 252 252 252 252 252 252 252 252 252 252 252 252 252 252 252 252 252 252 252 252 252 252 252 252 252 252 252 252 252 252 252 252 252 252 252 252 252 252 252 252 252 252 252 252 252 252 252 252 252 252 252 252 252 252 252 252 252 252 252 252 252 252 252 252 252 252 252 252 252 252 252 252 252 252 252 252 252 252 252 252 252 252 252 252 252 252 252 252 252 
251 251 251 252 252 252 252 252 252 252 252 252 252 252 252 252 252 252 252 252 252 252 252 252 252 252 252 252 252 252 252 252 252 252 252 252 252 252 252 252 252 252 252 252 252 252 252 252 252 252 252 252 252 252 252 252 252 252 252 252 252 252 252 252 252 252 252 252 252 252 252 252 252 252 252 252 252 252 252 252 252 252 252 252 252 252 252 252 252 252 252 252 252 252 252 252 252 252 252 252 252 252 252 252 252 252 252 252 252 252 252 252 252 252 252 252 252 252 252 252 252 252 252 252 252 252 252 252 252 252 252 252 252 252 252 252 252 252 252 252 252 252 252 252 252 252 252 252 252 252 252 252 252 252 252 252 252 252 252 252 252 252 252 252 252 252 252 252 252 252 252 252 252 252 252 252 252 252 252 252 252 252 252 252 252 252 252 252 252 
251 251 251 252 252 252 252 252 252 252 252 252 252 252 252 252 252 252 252 252 252 252 252 252 252 252 252 252 252 252 252 252 252 252 252 252 252 252 252 252 252 252 252 252 252 252 252 252 252 252 252 252 252 252 252 252 252 252 252 252 252 252 252 252 252 252 252 252 252 252 252 252 252 252 252 252 252 252 252 252 252 252 252 252 252 252 252 252 252 252 252 252 252 252 252 252 252 252 252 252 252 252 252 252 252 252 252 252 252 252 252 252 252 252 252 252 252 252 252 252 252 252 252 252 252 252 252 252 252 252 252 252 252 252 252 252 252 252 252 252 252 252 252 252 252 252 252 252 252 252 252 252 252 252 252 252 252 252 252 252 252 252 252 252 252 252 252 252 252 252 252 252 252 252 252 252 252 252 252 252 252 252 252 252 252 252 252 252 252 
251 251 251 252 252 252 252 252 252 252 252 252 252 252 252 252 252 252 252 252 252 252 252 252 252 252 252 252 252 252 252 252 252 252 252 252 252 252 252 252 252 252 252 252 252 252 252 252 252 252 252 252 252 252 252 252 252 252 252 252 252 252 252 252 252 252 252 252 252 252 252 252 252 252 252 252 252 252 252 252 252 252 252 252 252 252 252 252 252 252 252 252 252 252 252 252 252 252 252 252 252 252 252 252 252 252 252 252 252 252 252 252 252 252 252 252 252 252 252 252 252 252 252 252 252 252 252 252 252 252 252 252 252 252 252 252 252 252 252 252 252 252 252 252 252 252 252 252 252 252 252 252 252 252 252 252 252 252 252 252 252 252 252 252 252 252 252 252 252 252 252 252 252 252 252 252 252 252 252 252 252 252 252 252 252 252 252 252 252 
251 251 251 252 252 252 252 252 252 252 252 252 252 252 252 252 252 252 252 252 252 252 252 252 252 252 252 252 252 252 252 252 252 252 252 252 252 252 252 252 252 252 252 252 252 252 252 252 252 252 252 252 252 252 252 252 252 252 252 252 252 252 252 252 252 252 252 252 252 252 252 252 252 252 252 252 252 252 252 252 252 252 252 252 252 252 252 252 252 252 252 252 252 252 252 252 252 252 252 252 252 252 252 252 252 252 252 252 252 252 252 252 252 252 252 252 252 252 252 252 252 252 252 252 252 252 252 252 252 252 252 252 252 252 252 252 252 252 252 252 252 252 252 252 252 252 252 252 252 252 252 252 252 252 252 252 252 252 252 252 252 252 252 252 252 252 252 252 252 252 252 252 252 252 252 252 252 252 252 252 252 252 252 252 252 252 252 252 252 
251 251 251 252 252 252 252 252 252 252 252 252 252 252 252 252 252 252 252 252 252 252 252 252 252 252 252 252 252 252 252 252 252 252 252 252 252 252 252 252 252 252 252 252 252 252 252 252 252 252 252 252 252 252 252 252 252 252 252 252 252 252 252 252 252 252 252 252 252 252 252 252 252 252 252 252 252 252 252 252 252 252 252 252 252 252 252 252 252 252 252 252 252 252 252 252 252 252 252 252 252 252 252 252 252 252 252 252 252 252 252 252 252 252 252 252 252 252 252 252 252 252 252 252 252 252 252 252 252 252 252 252 252 252 252 252 252 252 252 252 252 252 252 252 252 252 252 252 252 252 252 252 252 252 252 252 252 252 252 252 252 252 252 252 252 252 252 252 252 252 252 252 252 252 252 252 252 252 252 252 252 252 252 252 252 252 252 252 252 
251 251 251 252 252 252 252 252 252 252 252 252 252 252 252 252 252 252 252 252 252 252 252 252 252 252 252 252 252 252 252 252 252 252 252 252 252 252 252 252 252 252 252 252 252 252 252 252 252 252 252 252 252 252 252 252 252 252 252 252 252 252 252 252 252 252 252 252 252 252 252 252 252 252 252 252 252 252 252 252 252 252 252 252 252 252 252 252 252 252 252 252 252 252 252 252 252 252 252 252 252 252 252 252 252 252 252 252 252 252 252 252 252 252 252 252 252 252 252 252 252 252 252 252 252 252 252 252 252 252 252 252 252 252 252 252 252 252 252 252 252 252 252 252 252 252 252 252 252 252 252 252 252 252 252 252 252 252 252 252 252 252 252 252 252 252 252 252 252 252 252 252 252 252 252 252 252 252 252 252 252 252 252 252 252 252 252 252 252 
251 251 251 252 252 252 252 252 252 252 252 252 252 252 252 252 252 252 252 252 252 252 252 252 252 252 252 252 252 252 252 252 252 252 252 252 252 252 252 252 252 252 252 252 252 252 252 252 252 252 252 252 252 252 252 252 252 252 252 252 252 252 252 252 252 252 252 252 252 252 252 252 252 252 252 252 252 252 252 252 252 252 252 252 252 252 252 252 252 252 252 252 252 252 252 252 252 252 252 252 252 252 252 252 252 252 252 252 252 252 252 252 252 252 252 252 252 252 252 252 252 252 252 252 252 252 252 252 252 252 252 252 252 252 252 252 252 252 252 252 252 252 252 252 252 252 252 252 252 252 252 252 252 252 252 252 252 252 252 252 252 252 252 252 252 252 252 252 252 252 252 252 252 252 252 252 252 252 252 252 252 252 252 252 252 252 252 252 252 
