P3
63 63
255
252 252 252 252 252 252 252 252 252 252 252 252 252 252 252 252 252 252 252 252 252 252 252 252 252 252 252 252 252 252 252 252 252 252 252 252 252 252 252 252 252 252 252 252 252 252 252 252 251 251 251 251 251 251 251 251 251 251 251 251 251 251 251 251 251 251 251 251 251 251 251 251 251 251 251 251 251 251 251 251 251 251 251 251 251 251 251 251 251 251 251 251 251 251 251 251 251 251 251 251 251 251 251 251 251 251 251 251 251 251 251 251 251 251 251 251 251 251 251 251 251 251 251 251 251 251 251 251 251 251 251 251 251 251 251 251 251 251 251 251 251 251 251 251 251 251 251 251 251 251 251 251 251 251 251 251 251 251 251 251 251 251 251 251 251 251 251 251 251 251 251 251 251 251 251 251 251 251 251 251 251 251 251 251 251 251 251 251 251 
252 252 252 252 252 252 252 252 252 252 252 252 251 251 251 251 251 251 251 251 251 251 251 251 251 251 251 251 251 251 251 251 251 251 251 251 251 251 251 251 251 251 251 251 251 251 251 251 252 252 252 252 252 252 252 252 252 252 252 252 252 252 252 252 252 252 252 252 252 252 252 252 252 252 252 252 252 252 252 252 252 252 252 252 252 252 252 252 252 252 252 252 252 252 252 252 252 252 252 252 252 252 252 252 252 252 252 252 252 252 252 252 252 252 252 252 252 252 252 252 252 252 252 252 252 252 252 252 252 252 252 252 252 252 252 252 252 252 252 252 252 252 252 252 252 252 252 252 252 252 252 252 252 252 252 252 252 252 252 252 252 252 252 252 252 252 252 252 252 252 252 252 252 252 252 252 252 252 252 252 252 252 252 252 252 252 252 252 252 
252 252 252 252 252 252 252 252 252 252 252 252 251 251 251 251 251 251 251 251 251 251 251 251 251 251 251 251 251 251 251 251 251 251 251 251 251 251 251 251 251 251 251 251 251 251 251 251 252 252 252 252 252 252 252 252 252 252 252 252 252 252 252 252 252 252 252 252 252 252 252 252 252 252 252 252 252 252 252 252 252 252 252 252 252 252 252 252 252 252 252 252 252 252 252 252 252 252 252 252 252 252 252 252 252 252 252 252 252 252 252 252 252 252 252 252 252 252 252 252 252 252 252 252 252 252 252 252 252 252 252 252 252 252 252 252 252 252 252 252 252 252 252 252 252 252 252 252 252 252 252 252 252 252 252 252 252 252 252 252 252 252 252 252 252 252 252 252 252 252 252 252 252 252 252 252 252 252 252 252 252 252 252 252 252 252 252 252 252 
252 252 252 252 252 252 252 252 252 252 252 252 251 251 251 251 251 251 251 251 251 251 251 251 251 251 251 251 251 251 251 251 251 251 251 251 251 251 251 251 251 251 251 251 251 251 251 251 252 252 252 252 252 252 252 252 252 252 252 252 252 252 252 252 252 252 252 252 252 252 252 252 252 252 252 252 252 252 252 252 252 252 252 252 252 252 252 252 252 252 252 252 252 252 252 252 252 252 252 252 252 252 252 252 252 252 252 252 252 252 252 252 252 252 252 252 252 252 252 252 252 252 252 252 252 252 252 252 252 252 252 252 252 252 252 252 252 252 252 252 252 252 252 252 252 252 252 252 252 252 252 252 252 252 252 252 252 252 252 252 252 252 252 252 252 252 252 252 252 252 252 252 252 252 252 252 252 252 252 252 252 252 252 252 252 252 252 252 252 
251 251 251 251 251 251 251 251 251 251 251 251 252 252 252 252 252 252 252 252 252 252 252 252 252 252 252 252 252 252 252 252 252 252 252 252 252 252 252 252 252 252 252 252 252 252 252 252 252 252 252 252 252 252 251 251 251 251 251 251 251 251 251 251 251 251 251 251 251 251 251 251 251 251 251 251 251 251 251 251 251 251 251 251 251 251 251 251 251 251 251 251 251 251 251 251 251 251 251 251 251 251 251 251 251 251 251 251 251 251 251 251 251 251 251 251 251 251 251 251 251 251 251 251 251 251 251 251 251 251 251 251 251 251 251 251 251 251 251 251 251 251 251 251 251 251 251 251 251 251 251 251 251 251 251 251 251 251 251 251 251 251 251 251 251 251 251 251 251 251 251 252 252 252 252 252 252 252 252 252 252 252 252 252 252 252 252 252 252 
251 251 251 251 251 251 251 251 251 251 251 251 252 252 252 252 252 252 252 252 252 252 252 252 252 252 252 252 252 252 252 252 252 252 252 252 252 252 252 252 252 252 252 252 252 252 252 252 252 252 252 252 251 251 251 251 251 251 251 251 251 251 251 251 251 251 251 251 251 251 251 251 251 251 251 251 251 251 251 251 251 251 251 251 251 251 251 251 251 251 251 251 251 251 251 251 251 251 251 251 251 251 251 251 251 251 251 251 251 251 251 251 251 251 251 251 251 251 251 251 251 251 251 251 251 251 251 251 251 251 251 251 251 251 251 251 251 251 251 251 251 251 251 251 251 251 251 251 251 251 251 251 251 251 251 251 251 251 251 251 251 251 251 251 251 251 251 251 251 251 251 252 251 251 252 252 252 252 252 252 252 252 252 252 252 252 252 252 252 
251 251 251 251 251 251 251 251 251 251 251 251 252 252 252 252 252 252 252 252 252 252 252 252 252 252 252 252 252 252 252 252 252 252 252 252 252 252 252 252 252 252 252 252 252 252 252 252 252 251 251 251 251 251 251 251 251 251 251 251 251 250 250 251 250 250 251 250 250 251 250 250 251 250 250 251 250 250 251 250 250 251 250 250 251 250 250 251 250 250 251 250 250 251 250 250 251 250 250 251 250 250 251 250 250 251 250 250 251 250 250 251 250 250 251 250 250 251 250 250 251 250 250 251 250 250 251 250 250 251 250 250 251 250 250 251 250 250 251 250 250 251 250 250 251 250 250 251 250 250 251 250 250 251 250 250 251 250 250 251 250 250 251 250 250 251 251 251 251 251 251 251 251 251 252 251 251 252 252 252 252 252 252 252 252 252 252 252 252 
251 251 251 251 251 251 251 251 251 251 251 251 252 252 252 252 252 252 252 252 252 252 252 252 252 252 252 252 252 252 252 252 252 252 252 252 252 252 252 252 252 252 252 252 252 252 252 252 252 251 251 251 251 251 251 251 251 251 250 250 250 250 250 250 249 249 250 249 249 250 249 249 250 249 249 250 248 249 250 248 249 250 248 249 250 248 249 250 248 249 250 248 249 250 248 249 250 248 249 250 248 249 250 248 249 250 248 249 250 248 249 250 248 249 250 248 249 250 248 249 250 248 249 250 248 249 250 248 249 250 248 249 250 248 249 250 248 249 250 248 249 250 248 249 250 248 249 250 248 249 250 249 249 250 249 249 250 249 249 250 249 249 250 250 250 251 250 250 251 251 251 251 251 251 252 251 251 252 252 252 252 252 252 252 252 252 252 252 252 
251 251 251 251 251 251 251 251 251 251 251 251 252 252 252 252 252 252 252 252 252 252 252 252 252 252 252 252 252 252 252 252 252 252 252 252 252 252 252 252 252 252 252 252 252 252 252 252 252 251 251 251 251 251 251 251 251 251 250 250 250 249 250 250 249 249 250 248 248 250 246 247 250 245 245 250 244 244 250 243 243 250 242 243 250 242 243 250 242 243 250 242 243 250 242 243 250 242 243 250 242 243 250 242 243 250 242 243 250 242 243 250 242 243 250 242 243 250 242 243 250 242 243 250 242 243 250 242 243 250 242 243 250 242 243 250 242 243 250 242 243 250 242 243 250 243 244 250 244 244 250 245 246 250 247 247 250 248 248 250 249 249 250 249 250 251 250 250 251 251 251 251 251 251 252 251 251 252 252 252 252 252 252 252 252 252 252 252 252 
251 251 251 251 251 251 251 251 251 251 251 251 252 252 252 252 252 252 252 252 252 252 252 252 252 252 252 252 252 252 252 252 252 252 252 252 252 252 252 252 252 252 252 252 252 252 252 252 252 251 251 251 251 251 251 251 251 251 250 250 250 249 249 250 248 248 249 246 246 249 242 243 249 237 239 249 233 235 249 229 232 249 228 231 249 228 231 249 228 231 249 228 231 249 228 231 249 228 231 249 228 231 249 228 231 249 228 231 249 228 231 249 228 231 249 228 231 249 228 231 249 228 231 249 228 231 249 228 231 249 228 231 249 228 231 249 228 231 249 228 231 249 228 231 249 230 233 249 234 236 249 238 240 249 243 244 249 246 246 250 248 249 250 249 249 251 250 250 251 251 251 251 251 251 252 251 251 252 252 252 252 252 252 252 252 252 252 252 252 
251 251 251 251 251 251 251 251 251 251 251 251 252 252 252 252 252 252 252 252 252 252 252 252 252 252 252 252 252 252 252 252 252 252 252 252 252 252 252 252 252 252 252 252 252 252 252 252 252 251 251 251 251 251 251 251 251 251 250 250 250 248 249 249 245 246 249 240 242 248 232 234 247 221 225 247 211 217 247 204 210 247 199 207 247 198 206 247 198 206 247 198 206 247 198 206 247 198 206 247 198 206 247 198 206 247 198 206 247 198 206 247 198 206 247 198 206 247 198 206 247 198 206 247 198 206 247 198 206 247 198 206 247 198 206 247 198 206 247 198 206 247 200 207 247 205 211 247 213 218 247 223 227 248 234 236 249 242 243 249 246 247 250 249 249 251 250 250 251 251 251 251 251 251 252 251 251 252 252 252 252 252 252 252 252 252 252 252 252 
251 251 251 251 251 251 251 251 251 251 251 251 252 252 252 252 252 252 252 252 252 252 252 252 252 252 252 252 252 252 252 252 252 252 252 252 252 252 252 252 252 252 252 252 252 252 252 252 252 251 251 251 251 251 251 251 251 251 250 250 250 248 248 249 243 244 248 234 236 247 218 222 246 197 206 246 178 189 245 164 177 245 156 171 245 153 168 245 152 168 245 152 168 245 152 168 245 152 168 245 152 168 245 152 168 245 152 168 245 152 168 245 152 168 245 152 168 245 152 168 245 152 168 245 152 168 245 152 168 245 152 168 245 152 168 245 152 168 245 153 169 245 157 172 245 167 179 246 181 192 246 202 209 248 221 225 248 236 238 249 244 245 250 248 249 251 250 250 251 251 251 251 251 251 252 251 251 252 252 252 252 252 252 252 252 252 252 252 252 
251 251 251 251 251 251 251 251 251 251 251 251 252 252 252 252 252 252 252 252 252 252 252 252 252 252 252 252 252 252 252 252 252 252 252 252 252 252 252 252 252 252 252 252 252 252 252 252 252 251 251 251 251 251 251 251 251 251 249 249 250 247 247 249 240 241 248 226 229 247 201 208 245 170 182 244 140 157 243 118 139 243 106 129 243 101 124 243 100 124 243 100 124 243 100 124 243 100 124 243 100 124 243 100 124 243 100 124 243 100 124 243 100 124 243 100 124 243 100 124 243 100 124 243 100 124 243 100 124 243 100 124 243 100 124 243 100 124 243 102 125 243 108 130 243 122 142 244 146 162 246 177 188 247 207 213 248 229 232 249 242 243 250 247 247 251 250 250 251 251 251 251 251 251 252 251 251 252 252 252 252 252 252 252 252 252 252 252 252 
251 251 251 251 251 251 251 251 251 251 251 251 252 252 252 252 252 252 252 252 252 252 252 252 252 252 252 252 252 252 252 252 252 252 252 252 252 252 252 252 252 252 252 252 252 252 252 252 252 251 251 251 251 251 251 251 251 251 249 249 250 246 247 249 237 239 247 218 223 246 187 196 244 147 162 242 108 130 241 79 106 241 63 93 241 56 87 241 54 86 241 54 86 241 54 86 241 54 86 241 54 86 241 54 86 241 54 86 241 54 86 241 54 86 241 54 86 241 54 86 241 54 86 241 54 86 241 54 86 241 54 86 241 54 86 241 54 86 241 57 88 241 65 94 241 84 110 243 115 136 245 155 169 246 194 202 248 223 227 249 239 241 250 247 247 251 250 250 251 251 251 251 251 251 252 251 251 252 252 252 252 252 252 252 252 252 252 252 252 
251 251 251 251 251 251 251 251 251 251 251 251 252 252 252 252 252 252 252 252 252 252 252 252 252 252 252 252 252 252 252 252 252 252 252 252 252 252 252 252 252 252 252 252 252 252 252 252 252 251 251 251 251 251 251 251 251 251 249 249 250 246 246 249 235 238 247 214 219 245 178 188 243 131 150 241 86 112 241 53 84 241 35 69 241 27 62 241 25 60 241 25 60 241 25 60 241 25 60 241 25 60 241 25 60 241 25 61 241 25 61 241 25 61 241 25 61 241 25 61 241 25 60 241 25 60 241 25 60 241 25 60 241 25 60 241 25 60 241 28 63 241 37 71 241 58 89 242 95 119 244 141 158 246 186 196 248 219 224 249 238 240 250 247 247 251 250 250 251 251 251 251 251 251 252 251 251 252 252 252 252 252 252 252 252 252 252 252 252 
251 251 251 251 251 251 251 251 251 251 251 251 252 252 252 252 252 252 252 252 252 252 252 252 252 252 252 252 252 252 252 252 252 252 252 252 252 252 252 252 252 252 252 252 252 252 252 252 252 251 251 251 251 251 251 251 251 251 249 249 250 245 246 249 235 237 247 211 217 245 173 185 243 124 143 241 76 103 241 41 74 241 21 57 241 12 50 241 10 48 241 9 48 241 9 48 241 10 48 241 10 48 241 10 48 241 10 49 241 10 49 241 10 49 241 10 49 241 10 48 241 10 48 241 10 48 241 9 48 241 9 48 241 10 48 241 10 48 241 13 50 241 23 59 241 46 78 242 85 110 244 134 152 246 182 192 248 217 223 249 238 240 250 246 247 251 250 250 251 251 251 251 251 251 252 251 251 252 252 252 252 252 252 252 252 252 252 252 252 
252 252 252 252 252 252 252 252 252 252 252 252 252 252 252 252 252 252 252 252 252 252 252 252 252 252 252 252 252 252 252 252 252 252 252 252 252 252 252 252 252 252 252 252 252 252 252 252 252 251 251 251 251 251 251 251 251 251 249 249 250 245 246 249 234 237 247 210 218 245 171 184 243 121 141 241 72 100 241 36 69 241 15 52 241 6 45 241 4 43 241 4 43 241 3 43 241 4 43 241 4 43 241 4 43 241 4 44 241 4 44 241 4 44 241 4 44 241 4 44 241 4 43 241 4 43 241 4 43 241 3 43 241 4 43 241 4 43 241 7 46 241 18 55 241 42 74 242 81 108 244 132 151 246 180 192 248 217 223 249 237 240 250 246 247 251 250 250 251 251 251 251 251 251 252 251 251 252 252 252 252 252 252 252 252 252 252 252 252 
252 252 252 252 252 252 252 252 252 252 252 252 252 252 252 252 252 252 252 252 252 252 252 252 252 252 252 252 252 252 252 251 252 252 251 252 252 251 252 252 251 252 252 251 252 252 251 252 252 251 251 251 250 251 251 250 251 251 249 249 250 245 246 249 234 237 247 210 218 245 171 184 243 120 141 241 71 100 241 35 69 241 14 51 241 6 44 241 4 43 241 3 43 241 3 43 241 3 43 241 3 43 241 4 43 241 4 43 241 4 44 241 4 44 241 4 44 241 4 43 241 4 43 241 3 43 241 3 43 241 3 43 241 3 43 241 4 43 241 7 45 241 18 54 241 41 74 242 80 108 244 131 151 246 180 192 248 217 223 249 237 240 250 246 247 251 250 250 251 251 251 251 251 251 252 251 251 252 252 252 252 252 252 252 252 252 252 252 252 
252 252 252 252 252 252 252 252 252 252 252 252 252 252 252 252 252 252 252 252 252 252 252 252 252 252 252 251 251 252 251 251 252 251 251 252 251 251 252 251 251 252 251 251 252 251 251 252 251 251 251 251 250 251 250 249 251 250 248 249 250 245 246 249 234 237 247 210 218 245 171 184 243 120 141 241 71 100 241 35 69 241 14 51 241 5 44 241 3 43 241 3 43 241 2 43 241 2 43 241 3 43 241 3 43 241 3 43 241 3 44 241 3 44 241 3 44 241 3 43 241 3 43 241 3 43 241 2 43 241 2 43 241 3 43 241 3 43 241 6 45 241 17 54 241 41 74 242 80 108 244 131 151 246 180 192 248 217 223 249 237 240 250 246 247 251 250 250 251 251 251 251 251 251 252 251 251 252 252 252 252 252 252 252 252 252 252 252 252 
252 252 252 252 252 252 252 252 252 252 252 252 252 252 252 252 252 252 252 252 252 252 252 252 252 251 252 251 251 252 251 251 252 251 251 252 251 251 252 251 251 252 251 251 252 251 251 252 251 250 251 250 250 251 250 249 251 250 248 249 249 244 246 249 234 237 247 210 218 245 171 184 243 120 141 241 71 100 241 34 69 241 14 51 241 5 44 241 3 43 241 3 43 241 2 43 241 2 43 241 3 43 241 3 43 241 3 43 241 3 44 241 3 44 241 3 44 241 3 43 241 3 43 241 3 43 241 2 43 241 2 43 241 3 43 241 3 43 241 6 45 241 17 54 241 41 74 242 80 108 244 131 151 246 180 192 248 217 223 249 237 240 250 246 247 251 250 250 251 251 251 251 251 251 252 251 251 252 252 252 252 252 252 252 252 252 252 252 252 
252 252 252 252 252 252 252 252 252 252 252 252 252 252 252 252 252 252 252 252 252 252 252 252 251 251 252 251 251 252 251 251 252 251 250 252 251 250 252 250 250 252 250 250 252 250 250 252 250 250 251 250 249 251 249 249 251 249 248 249 249 244 246 248 233 237 247 209 218 245 170 184 243 120 141 241 71 100 241 34 69 241 14 51 241 6 44 241 3 43 241 3 43 241 2 43 241 2 43 241 3 43 241 3 43 241 3 43 241 4 44 241 4 44 241 4 44 241 3 43 241 3 43 241 3 43 241 2 43 241 2 43 241 3 43 241 3 43 241 7 45 241 18 54 241 41 74 242 80 108 244 131 151 246 180 192 248 217 223 249 237 240 250 246 247 251 250 250 251 251 251 251 251 251 252 251 251 252 252 252 252 252 252 252 252 252 252 252 252 
252 252 252 252 252 252 252 252 252 252 252 252 252 252 252 252 252 252 252 252 252 252 252 252 251 251 252 251 251 252 251 251 252 251 250 252 250 250 252 250 249 252 250 249 252 250 249 252 250 249 251 249 248 251 249 248 251 249 247 249 248 243 246 247 232 237 246 209 218 245 170 184 243 119 141 241 70 100 240 34 69 240 14 51 240 6 44 240 4 43 240 3 43 241 3 43 241 3 43 241 4 43 241 4 43 241 4 43 241 4 44 241 4 44 241 4 44 241 4 43 241 4 43 241 4 43 241 3 43 241 3 43 241 3 43 241 4 43 241 7 45 241 18 54 241 41 74 242 80 108 244 131 151 246 180 192 248 217 223 249 237 240 250 246 247 251 250 250 251 251 251 251 251 251 252 251 251 252 252 252 252 252 252 252 252 252 252 252 252 
252 252 252 252 252 252 252 252 252 252 252 252 252 252 252 252 252 252 252 252 252 252 252 252 251 251 252 251 251 252 251 251 252 251 250 252 250 249 252 249 249 252 249 248 252 249 247 252 249 245 251 249 245 251 248 244 251 248 242 249 248 239 246 247 228 237 246 205 218 244 167 184 243 117 141 241 69 100 240 34 69 240 14 51 240 6 44 240 4 43 240 3 43 241 3 43 241 3 43 241 4 43 241 4 43 241 4 43 241 4 44 241 4 44 241 4 44 241 4 43 241 4 43 241 4 43 241 3 43 241 3 43 241 3 43 241 4 43 241 7 45 241 18 54 241 41 74 242 80 108 244 131 151 246 181 192 248 217 223 249 238 240 250 247 247 251 250 250 251 251 251 251 251 251 252 251 251 252 252 252 252 252 252 252 252 252 252 252 252 
252 252 252 252 252 252 252 252 252 252 252 252 252 252 252 252 252 252 252 252 252 252 252 252 251 251 252 251 251 252 251 251 252 250 250 252 250 249 252 249 247 252 248 245 252 248 243 252 247 240 251 247 237 251 246 235 251 246 233 249 246 230 246 245 220 237 245 197 218 243 160 184 242 113 141 240 67 100 240 33 69 240 14 51 240 6 44 240 4 43 240 3 43 241 3 43 241 3 43 241 4 43 241 4 43 241 4 43 241 4 44 241 4 44 241 4 44 241 4 43 241 4 43 241 4 43 241 3 43 241 3 43 241 3 43 241 4 43 241 7 45 241 18 54 241 41 74 242 80 108 244 131 151 246 181 192 248 217 223 249 238 240 250 247 247 251 250 250 251 251 251 251 251 251 252 251 251 252 252 252 252 252 252 252 252 252 252 252 252 
252 252 252 252 252 252 252 252 252 252 252 252 252 252 252 252 252 252 252 252 252 252 252 252 251 251 252 251 251 252 251 251 252 250 250 252 249 248 252 249 245 252 248 241 252 247 236 252 246 229 251 245 223 251 244 220 251 244 217 249 244 213 246 243 204 237 243 183 218 242 149 184 240 105 141 239 62 100 239 31 69 239 13 51 239 6 44 240 4 43 240 3 43 241 3 43 241 3 43 241 4 43 241 4 43 241 4 43 241 4 44 241 4 44 241 4 44 241 4 43 241 4 43 241 4 43 241 3 43 241 3 43 241 3 43 241 4 43 241 7 45 241 18 54 241 41 74 242 80 108 244 131 151 246 181 192 248 217 223 249 237 240 250 246 247 251 250 250 251 251 251 251 251 251 252 251 251 252 252 252 252 252 252 252 252 252 252 252 252 
252 252 252 252 252 252 252 252 252 252 252 252 252 252 252 252 252 252 252 252 252 252 252 252 251 251 252 251 251 252 251 251 252 250 249 252 249 247 252 248 243 252 247 236 252 245 226 252 243 214 251 242 205 251 242 199 251 241 195 249 241 191 246 240 183 237 240 164 218 240 133 184 239 94 141 239 56 100 239 27 69 239 12 51 239 6 44 240 4 43 240 3 43 241 3 43 241 3 43 241 4 43 241 4 43 241 4 43 241 4 44 241 4 44 241 4 44 241 4 43 241 4 43 241 3 43 241 3 43 241 3 43 241 3 43 241 4 43 241 7 45 241 18 54 241 41 74 242 80 108 244 131 151 246 180 192 248 217 223 249 237 240 250 246 247 251 250 250 251 251 251 251 251 251 252 251 251 252 252 252 252 252 252 252 252 252 252 252 252 
252 252 252 252 252 252 252 252 252 252 252 252 252 252 252 252 252 252 252 252 252 252 252 252 251 251 252 251 251 252 251 251 252 250 249 252 249 247 252 248 241 252 246 231 252 244 216 252 242 200 251 240 186 251 239 177 251 238 172 249 238 168 246 238 161 237 238 144 218 238 117 184 238 82 141 238 49 100 239 24 69 239 10 51 239 5 44 240 3 43 240 3 43 241 2 43 241 3 43 241 3 43 241 3 43 241 3 43 241 3 44 241 3 44 241 3 44 241 3 43 241 3 43 241 3 43 241 2 43 241 2 43 241 3 43 241 3 43 241 6 45 241 17 54 241 41 74 242 80 108 244 131 151 246 180 192 248 217 223 249 237 240 250 246 247 251 250 250 251 251 251 251 251 251 252 251 251 252 252 252 252 252 252 252 252 252 252 252 252 
252 252 252 252 252 252 252 252 252 252 252 252 252 252 252 252 252 252 252 252 252 252 252 252 251 251 252 251 251 252 251 251 252 250 249 252 249 246 252 247 240 252 245 227 252 243 209 252 240 189 251 238 172 251 236 161 251 236 155 249 236 150 246 236 143 237 236 129 218 236 105 184 237 74 141 238 44 100 238 22 69 238 10 51 239 5 44 239 3 43 240 3 43 240 2 43 240 2 43 240 3 43 240 3 43 240 3 43 240 3 44 240 3 44 240 3 44 240 3 43 240 3 43 240 3 43 240 2 43 240 2 43 240 3 43 240 3 43 240 6 45 241 17 54 241 41 74 242 80 108 244 131 151 246 180 192 248 217 223 249 237 240 250 246 247 251 250 250 251 251 251 251 251 251 252 251 251 252 252 252 252 252 252 252 252 252 252 252 252 
252 252 252 252 252 252 252 252 252 252 252 252 252 252 252 252 252 252 252 252 252 252 252 252 251 251 252 251 251 252 251 251 252 250 249 252 249 246 252 247 239 252 245 225 252 243 205 252 240 182 251 237 163 251 236 151 251 236 144 249 236 140 246 236 133 237 236 120 218 236 98 184 236 69 141 237 41 100 237 21 69 238 10 51 239 5 44 239 4 43 239 3 43 239 3 43 240 3 43 240 4 43 240 4 43 240 4 43 240 4 44 240 4 44 240 4 44 240 4 43 240 4 43 240 4 43 240 3 43 240 3 43 240 3 43 240 4 43 240 7 45 241 18 54 241 41 74 242 80 108 244 131 151 246 180 192 248 217 223 249 237 240 250 246 247 251 250 250 251 251 251 251 251 251 252 251 251 252 252 252 252 252 252 252 252 252 252 252 252 
252 252 252 252 252 252 252 252 252 252 252 252 252 252 252 252 252 252 252 252 252 252 252 252 251 251 252 251 251 252 251 251 252 250 249 252 249 246 252 247 239 252 245 224 252 243 203 252 240 180 251 237 160 251 236 147 251 236 140 249 236 136 246 236 130 237 236 116 218 236 94 184 236 67 141 237 40 100 237 21 69 238 10 51 239 5 44 239 4 43 239 3 43 239 3 43 240 3 43 240 4 43 240 4 43 240 4 43 240 4 44 240 4 44 240 4 44 240 4 43 240 4 43 240 4 43 240 3 43 240 3 43 240 3 43 240 4 43 240 7 45 241 18 54 241 41 74 242 80 108 244 131 151 246 180 192 248 217 223 249 237 240 250 246 247 251 250 250 251 251 251 251 251 251 252 251 251 252 252 252 252 252 252 252 252 252 252 252 252 
252 252 252 252 252 252 252 252 252 252 252 252 252 252 252 252 252 252 252 252 252 252 252 252 251 251 252 251 251 252 251 251 252 250 249 252 249 246 252 247 239 252 245 224 252 243 203 252 240 179 251 237 159 251 236 147 251 236 140 249 236 135 246 236 129 237 236 115 218 236 94 184 236 67 142 236 41 101 237 21 71 238 11 54 238 6 47 238 5 44 238 4 44 239 4 44 239 5 44 239 5 44 239 5 44 239 5 45 239 5 45 239 5 45 239 5 45 239 5 45 239 5 44 239 5 44 239 5 44 240 5 44 240 5 44 240 6 45 240 9 47 241 20 56 241 43 76 242 82 109 244 132 151 246 181 192 248 217 223 249 237 240 250 246 247 251 250 250 251 251 251 251 251 251 252 251 251 252 252 252 252 252 252 252 252 252 252 252 252 
252 252 252 252 252 252 252 252 252 252 252 252 252 252 252 252 252 252 252 252 252 252 252 252 251 251 252 251 251 252 251 251 252 250 249 252 249 246 252 247 239 252 245 224 252 243 203 252 240 179 251 237 159 251 236 147 251 236 140 249 236 135 246 236 129 237 236 116 218 236 95 186 236 69 145 236 43 105 237 24 76 237 14 60 237 10 53 238 9 51 238 9 51 239 9 51 239 9 51 239 9 51 239 9 51 239 9 52 239 9 52 239 9 52 239 10 52 239 10 51 239 11 51 239 12 51 239 12 51 239 13 51 240 13 51 240 14 51 240 17 53 241 27 62 241 49 81 242 87 113 244 136 154 246 183 193 248 218 223 249 238 240 250 247 247 251 250 250 251 251 251 251 251 251 252 251 251 252 252 252 252 252 252 252 252 252 252 252 252 
252 252 252 252 252 252 252 252 252 252 252 252 252 252 252 252 252 252 252 252 252 252 252 252 251 251 252 251 251 252 251 251 252 250 249 252 249 246 252 247 239 252 245 224 252 243 203 252 240 179 251 237 159 251 236 147 251 236 140 249 236 135 246 236 129 238 236 118 220 236 98 190 236 74 153 236 51 117 236 34 91 236 24 76 237 20 69 237 19 67 238 19 67 238 19 67 238 19 67 238 19 67 238 19 67 238 19 68 238 19 68 238 20 68 238 21 68 238 23 68 239 25 67 239 28 67 239 30 67 239 31 67 240 32 67 240 33 67 240 36 70 241 45 78 241 66 95 242 100 124 244 145 161 246 188 197 248 220 225 249 238 240 250 247 247 251 250 250 251 251 251 251 251 251 252 251 251 252 252 252 252 252 252 252 252 252 252 252 252 
252 252 252 252 252 252 252 252 252 252 252 252 252 252 252 252 252 252 252 252 252 252 252 252 251 251 252 251 251 252 251 251 252 250 249 252 249 246 252 247 239 252 245 224 252 243 203 252 240 179 251 237 159 251 236 147 251 236 140 249 236 135 247 236 130 240 236 120 225 236 104 200 236 84 168 236 64 138 236 50 116 236 42 103 236 39 98 236 38 98 237 38 98 237 38 98 237 38 98 237 38 98 237 38 98 237 38 98 237 38 98 237 39 98 237 42 98 238 47 98 239 53 98 239 59 98 240 63 98 240 65 98 241 67 98 241 68 98 241 71 99 242 78 105 242 95 119 243 124 144 245 161 175 246 198 206 248 225 228 249 240 242 250 247 247 251 250 250 251 251 251 251 251 251 252 251 251 252 252 252 252 252 252 252 252 252 252 252 252 
252 252 252 252 252 252 252 252 252 252 252 252 252 252 252 252 252 252 252 252 252 252 252 252 251 251 252 251 251 252 251 251 252 250 249 252 249 246 252 247 239 252 245 224 252 243 203 252 240 179 251 237 159 251 236 147 251 236 140 249 236 136 247 236 132 242 236 124 231 236 113 213 236 98 190 236 84 168 236 74 152 236 67 142 236 65 139 236 64 138 236 64 138 236 64 138 236 64 138 236 64 138 236 64 138 236 65 138 236 65 138 236 67 138 237 72 138 238 80 138 239 91 138 240 101 138 241 108 138 242 112 138 243 115 138 243 116 138 243 118 139 244 124 144 244 136 154 244 158 172 246 185 195 247 212 217 248 231 234 249 243 243 250 247 247 251 250 250 251 251 251 251 251 251 252 251 251 252 252 252 252 252 252 252 252 252 252 252 252 
252 252 252 252 252 252 252 252 252 252 252 252 252 252 252 252 252 252 252 252 252 252 252 252 251 251 252 251 251 252 251 251 252 250 249 252 249 246 252 247 239 252 245 224 252 243 203 252 240 179 251 237 159 251 236 147 251 236 140 250 236 137 248 236 133 245 236 128 238 236 121 227 236 113 213 236 104 199 236 97 189 236 94 184 236 93 181 236 93 181 236 93 181 236 93 181 236 93 181 236 93 181 236 93 181 236 93 181 236 93 181 236 96 181 236 103 181 238 115 181 240 130 181 241 146 181 243 157 181 244 163 181 244 166 181 245 167 181 245 169 182 246 172 184 246 180 191 246 192 202 247 209 216 248 225 229 249 238 239 249 245 246 250 248 249 251 250 250 251 251 251 251 251 251 252 251 251 252 252 252 252 252 252 252 252 252 252 252 252 
252 252 252 252 252 252 252 252 252 252 252 252 252 252 252 252 252 252 252 252 252 252 252 252 251 251 252 251 251 252 251 251 252 250 249 252 249 246 252 247 239 252 245 224 252 243 203 252 240 179 251 237 159 251 236 147 251 236 140 250 236 137 249 236 134 247 236 132 243 236 129 237 236 124 230 236 119 224 236 117 219 236 115 216 236 115 216 236 115 216 236 115 216 236 115 216 236 115 216 236 115 216 236 115 216 236 115 216 236 116 216 236 119 216 236 128 216 238 143 216 240 162 216 243 182 216 244 196 216 245 203 216 246 206 216 247 208 216 247 209 216 247 211 217 248 215 220 248 221 225 248 229 232 248 237 239 249 243 244 250 247 247 250 249 249 251 250 250 251 251 251 251 251 251 252 251 251 252 252 252 252 252 252 252 252 252 252 252 252 
252 252 252 252 252 252 252 252 252 252 252 252 252 252 252 252 252 252 252 252 252 252 252 252 251 251 252 251 251 252 251 251 252 250 249 252 249 246 252 247 239 252 245 224 252 243 203 252 240 179 251 237 159 251 236 147 251 236 140 250 236 137 250 236 135 248 236 134 247 236 133 244 236 131 241 236 130 239 236 129 237 236 128 237 236 128 237 236 128 237 236 128 237 236 128 237 236 128 237 236 128 237 236 128 237 236 128 237 236 129 237 236 133 237 236 143 237 238 160 237 240 181 237 243 203 237 246 218 237 247 227 237 248 231 237 248 232 237 249 233 237 249 234 237 250 236 237 250 238 239 250 241 242 250 244 245 250 247 247 250 248 249 250 249 250 251 250 250 251 251 251 251 251 251 252 251 251 252 252 252 252 252 252 252 252 252 252 252 252 
252 252 252 252 252 252 252 252 252 252 252 252 252 252 252 252 252 252 252 252 252 252 252 252 251 251 252 251 251 252 251 251 252 250 249 252 249 246 252 247 239 252 245 224 252 243 203 252 240 179 251 237 159 251 236 147 251 236 140 250 236 137 250 236 136 249 236 136 249 236 135 248 236 135 247 236 135 246 236 135 246 236 135 246 236 135 246 236 135 246 236 135 246 236 135 246 236 135 246 236 135 246 236 135 246 236 135 246 236 135 246 236 139 246 236 150 246 238 167 246 241 190 246 244 213 246 246 229 246 247 239 246 248 242 246 249 244 246 249 244 246 249 245 246 250 245 246 250 246 246 250 247 247 250 247 248 250 248 249 250 249 249 250 250 250 251 250 250 251 251 251 251 251 251 252 251 251 252 252 252 252 252 252 252 252 252 252 252 252 
252 252 252 252 252 252 252 252 252 252 252 252 252 252 252 252 252 252 252 252 252 252 252 252 251 251 252 251 251 252 251 251 252 250 249 252 249 246 252 247 239 252 245 224 252 243 203 252 240 179 251 237 159 251 236 147 251 236 140 251 236 137 250 236 137 250 236 137 250 236 137 250 236 137 250 236 137 250 236 137 250 236 137 250 236 137 250 236 137 250 236 137 250 236 137 250 236 137 250 236 137 250 236 137 250 236 137 250 236 138 250 236 142 250 236 152 250 238 170 250 241 194 250 244 216 250 246 233 250 248 242 250 249 246 250 249 247 250 250 248 250 250 248 250 251 249 250 251 249 250 251 250 250 251 250 250 251 250 250 251 250 250 251 250 250 251 251 251 251 251 251 251 251 251 252 251 251 252 252 252 252 252 252 252 252 252 252 252 252 
252 252 252 252 252 252 252 252 252 252 252 252 252 252 252 252 252 252 252 252 252 252 252 252 251 251 252 251 251 252 251 251 252 250 249 252 249 246 252 247 239 252 245 224 252 243 203 252 240 179 252 237 159 251 236 147 251 236 140 251 236 138 251 236 138 251 236 138 251 236 138 251 236 138 251 236 138 251 236 138 251 236 138 251 236 138 251 236 138 251 236 138 251 236 138 251 236 138 251 236 138 251 236 138 251 236 138 251 236 138 251 236 142 251 236 153 251 238 171 251 241 195 251 244 217 251 247 234 251 248 244 251 249 248 251 250 249 251 250 250 251 250 250 251 251 250 251 251 251 251 251 251 251 251 251 251 251 251 251 251 251 251 251 251 251 251 251 251 251 251 251 252 251 251 252 252 252 252 252 252 252 252 252 252 252 252 252 252 252 
252 252 252 252 252 252 252 252 252 252 252 252 252 252 252 252 252 252 252 252 252 252 252 252 251 251 252 251 251 252 251 251 252 250 249 252 249 246 252 247 239 252 245 224 252 243 203 252 240 179 252 237 159 252 236 147 251 236 140 251 236 138 251 236 138 251 236 138 251 236 138 251 236 138 251 236 138 251 236 138 251 236 138 251 236 138 251 236 138 251 236 138 251 236 138 251 236 138 251 236 138 251 236 138 251 236 138 251 236 139 251 236 143 251 236 153 251 238 172 251 242 195 251 245 218 251 248 235 251 249 244 251 249 248 251 250 249 251 250 250 251 250 250 251 251 251 251 251 251 251 251 251 251 251 251 251 251 251 251 251 251 251 251 251 251 251 251 251 251 251 251 252 252 252 252 252 252 252 252 252 252 252 252 252 252 252 252 252 252 
252 252 252 252 252 252 252 252 252 252 252 252 252 252 252 252 252 252 252 252 252 252 252 252 251 251 252 251 251 252 251 251 252 250 249 252 249 246 252 247 239 252 245 224 252 243 203 252 240 179 252 237 159 252 236 147 252 236 140 252 236 138 252 236 138 252 236 138 252 236 138 252 236 138 252 236 138 252 236 138 252 236 138 252 236 138 252 236 138 252 236 138 252 236 138 252 236 138 252 236 138 252 236 138 252 236 138 252 236 139 252 236 143 252 236 154 252 239 172 252 242 196 252 245 218 252 248 235 252 249 245 252 250 249 252 251 250 252 251 251 252 251 251 252 252 251 252 252 252 252 252 252 252 252 252 252 252 252 252 252 252 252 252 252 252 252 252 252 252 252 252 252 252 252 252 252 252 252 252 252 252 252 252 252 252 252 252 252 252 
252 252 252 252 252 252 252 252 252 252 252 252 252 252 252 252 252 252 252 252 252 252 252 252 251 251 252 251 251 252 251 251 252 250 249 252 249 246 252 247 239 252 245 224 252 243 203 252 240 179 252 237 159 252 236 147 252 236 141 252 236 139 252 236 139 252 236 139 252 236 139 252 236 139 252 236 139 252 236 139 252 236 139 252 236 139 252 236 139 252 236 139 252 236 139 252 236 139 252 236 139 252 236 139 252 236 139 252 236 140 252 236 144 252 236 155 252 239 173 252 242 196 252 245 218 252 248 235 252 249 245 252 250 249 252 251 250 252 251 251 252 251 251 252 252 251 252 252 252 252 252 252 252 252 252 252 252 252 252 252 252 252 252 252 252 252 252 252 252 252 252 252 252 252 252 252 252 252 252 252 252 252 252 252 252 252 252 252 252 
252 252 252 252 252 252 252 252 252 252 252 252 252 252 252 252 252 252 252 252 252 252 252 252 251 251 252 251 251 252 251 251 252 250 249 252 249 246 252 247 239 252 245 224 252 243 204 252 240 181 252 237 161 252 236 149 252 236 143 252 236 142 252 236 142 252 236 142 252 236 142 252 236 142 252 236 142 252 236 142 252 236 142 252 236 142 252 236 142 252 236 142 252 236 142 252 236 142 252 236 142 252 236 142 252 236 142 252 236 143 252 236 147 252 236 157 252 239 175 252 242 197 252 245 219 252 248 235 252 249 245 252 250 249 252 251 250 252 251 251 252 251 251 252 252 251 252 252 252 252 252 252 252 252 252 252 252 252 252 252 252 252 252 252 252 252 252 252 252 252 252 252 252 252 252 252 252 252 252 252 252 252 252 252 252 252 252 252 252 
252 252 252 252 252 252 252 252 252 252 252 252 252 252 252 252 252 252 252 252 252 252 252 252 251 251 252 251 251 252 251 251 252 250 249 252 249 246 252 247 239 252 245 226 252 243 207 252 240 186 252 237 167 252 236 156 252 236 151 252 236 149 252 236 149 252 236 149 252 236 149 252 236 149 252 236 149 252 236 149 252 236 149 252 236 149 252 236 149 252 236 149 252 236 149 252 236 149 252 236 149 252 236 149 252 236 149 252 236 150 252 236 154 252 237 164 252 239 180 252 242 200 252 245 221 252 248 236 252 249 245 252 250 249 252 251 250 252 251 251 252 251 251 252 252 251 252 252 252 252 252 252 252 252 252 252 252 252 252 252 252 252 252 252 252 252 252 252 252 252 252 252 252 252 252 252 252 252 252 252 252 252 252 252 252 252 252 252 252 
252 252 252 252 252 252 252 252 252 252 252 252 252 252 252 252 252 252 252 252 252 252 252 252 251 251 252 251 251 252 251 251 252 250 249 252 249 247 252 247 241 252 245 230 252 243 213 252 241 195 252 239 180 252 238 170 252 238 166 252 238 165 252 238 165 252 238 165 252 238 165 252 238 165 252 238 165 252 238 165 252 238 165 252 238 165 252 238 165 252 238 165 252 238 165 252 238 165 252 238 165 252 238 165 252 238 165 252 238 165 252 238 169 252 238 176 252 240 190 252 242 208 252 245 225 252 248 237 252 249 245 252 250 249 252 251 250 252 251 251 252 251 251 252 252 251 252 252 252 252 252 252 252 252 252 252 252 252 252 252 252 252 252 252 252 252 252 252 252 252 252 252 252 252 252 252 252 252 252 252 252 252 252 252 252 252 252 252 252 
252 252 252 252 252 252 252 252 252 252 252 252 252 252 252 252 252 252 252 252 252 252 252 252 251 251 252 251 251 252 251 251 252 250 249 252 249 247 252 248 243 252 246 234 252 244 222 252 243 209 252 241 197 252 241 191 252 241 188 252 241 187 252 241 187 252 241 187 252 241 187 252 241 187 252 241 187 252 241 187 252 241 187 252 241 187 252 241 187 252 241 187 252 241 187 252 241 187 252 241 187 252 241 187 252 241 187 252 241 187 252 241 189 252 241 195 252 242 205 252 244 218 252 246 231 252 248 241 252 249 246 252 250 249 252 251 250 252 251 251 252 251 251 252 252 251 252 252 252 252 252 252 252 252 252 252 252 252 252 252 252 252 252 252 252 252 252 252 252 252 252 252 252 252 252 252 252 252 252 252 252 252 252 252 252 252 252 252 252 
252 252 252 252 252 252 252 252 252 252 252 252 252 252 252 252 252 252 252 252 252 252 252 252 251 251 252 251 251 252 251 251 252 250 249 252 250 247 252 249 245 252 247 240 252 246 232 252 245 223 252 244 217 252 244 213 252 244 211 252 244 211 252 244 211 252 244 211 252 244 211 252 244 211 252 244 211 252 244 211 252 244 211 252 244 211 252 244 211 252 244 211 252 244 211 252 244 211 252 244 211 252 244 211 252 244 211 252 244 211 252 244 212 252 244 215 252 244 221 252 245 230 252 247 238 252 248 244 252 249 247 252 250 249 252 251 250 252 251 251 252 251 251 252 252 251 252 252 252 252 252 252 252 252 252 252 252 252 252 252 252 252 252 252 252 252 252 252 252 252 252 252 252 252 252 252 252 252 252 252 252 252 252 252 252 252 252 252 252 
252 252 252 252 252 252 252 252 252 252 252 252 252 252 252 252 252 252 252 252 252 252 252 252 251 251 252 251 251 252 251 251 252 250 250 252 250 249 252 249 247 252 248 244 252 247 241 252 247 236 252 247 233 252 247 231 252 247 230 252 247 230 252 247 230 252 247 230 252 247 230 252 247 230 252 247 230 252 247 230 252 247 230 252 247 230 252 247 230 252 247 230 252 247 230 252 247 230 252 247 230 252 247 230 252 247 230 252 247 230 252 247 230 252 247 232 252 247 235 252 247 239 252 248 243 252 249 246 252 250 248 252 250 249 252 251 250 252 251 251 252 251 251 252 252 251 252 252 252 252 252 252 252 252 252 252 252 252 252 252 252 252 252 252 252 252 252 252 252 252 252 252 252 252 252 252 252 252 252 252 252 252 252 252 252 252 252 252 252 
252 252 252 252 252 252 252 252 252 252 252 252 252 252 252 252 252 252 252 252 252 252 252 252 251 251 252 251 251 252 251 251 252 251 250 252 250 249 252 250 248 252 249 247 252 249 246 252 249 244 252 249 242 252 249 242 252 249 242 252 249 242 252 249 242 252 249 242 252 249 242 252 249 242 252 249 242 252 249 242 252 249 242 252 249 242 252 249 242 252 249 242 252 249 242 252 249 242 252 249 242 252 249 242 252 249 242 252 249 242 252 249 242 252 249 243 252 249 244 252 249 245 252 249 246 252 249 248 252 250 249 252 250 250 252 251 250 252 251 251 252 251 251 252 252 251 252 252 252 252 252 252 252 252 252 252 252 252 252 252 252 252 252 252 252 252 252 252 252 252 252 252 252 252 252 252 252 252 252 252 252 252 252 252 252 252 252 252 252 
252 252 252 252 252 252 252 252 252 252 252 252 252 252 252 252 252 252 252 252 252 252 252 252 251 251 252 251 251 252 251 251 252 251 250 252 250 250 252 250 249 252 250 249 252 250 248 252 250 248 252 250 248 252 250 248 252 250 248 252 250 248 252 250 248 252 250 248 252 250 248 252 250 248 252 250 248 252 250 248 252 250 248 252 250 248 252 250 248 252 250 248 252 250 248 252 250 248 252 250 248 252 250 248 252 250 248 252 250 248 252 250 248 252 250 248 252 250 248 252 250 248 252 250 249 252 250 249 252 250 250 252 250 250 252 251 251 252 251 251 252 251 251 252 252 251 252 252 252 252 252 252 252 252 252 252 252 252 252 252 252 252 252 252 252 252 252 252 252 252 252 252 252 252 252 252 252 252 252 252 252 252 252 252 252 252 252 252 252 
252 252 252 252 252 252 252 252 252 252 252 252 252 252 252 252 252 252 252 252 252 252 252 252 252 251 252 251 251 252 251 251 252 251 250 252 251 250 252 251 250 252 251 250 252 251 250 252 251 250 252 251 250 252 251 250 252 251 250 252 251 250 252 251 250 252 251 250 252 251 250 252 251 250 252 251 250 252 251 250 252 251 250 252 251 250 252 251 250 252 251 250 252 251 250 252 251 250 252 251 250 252 251 250 252 251 250 252 251 250 252 251 250 252 251 250 252 251 250 252 251 250 252 251 250 252 251 250 252 251 250 252 251 250 252 251 251 252 251 251 252 251 251 252 252 252 252 252 252 252 252 252 252 252 252 252 252 252 252 252 252 252 252 252 252 252 252 252 252 252 252 252 252 252 252 252 252 252 252 252 252 252 252 252 252 252 252 252 252 
252 252 252 252 252 252 252 252 252 252 252 252 252 252 252 252 252 252 252 252 252 252 252 252 252 252 252 251 251 252 251 251 252 251 251 252 251 251 252 251 251 252 251 251 252 251 251 252 251 251 252 251 251 252 251 251 252 251 251 252 251 251 252 251 251 252 251 251 252 251 251 252 251 251 252 251 251 252 251 251 252 251 251 252 251 251 252 251 251 252 251 251 252 251 251 252 251 251 252 251 251 252 251 251 252 251 251 252 251 251 252 251 251 252 251 251 252 251 251 252 251 251 252 251 251 252 251 251 252 251 251 252 251 251 252 251 251 252 251 251 252 252 251 252 252 252 252 252 252 252 252 252 252 252 252 252 252 252 252 252 252 252 252 252 252 252 252 252 252 252 252 252 252 252 252 252 252 252 252 252 252 252 252 252 252 252 252 252 252 
252 252 252 252 252 252 252 252 252 252 252 252 252 252 252 252 252 252 252 252 252 252 252 252 252 252 252 252 251 252 251 251 252 251 251 252 251 251 252 251 251 252 251 251 252 251 251 252 251 251 252 251 251 252 251 251 252 251 251 252 251 251 252 251 251 252 251 251 252 251 251 252 251 251 252 251 251 252 251 251 252 251 251 252 251 251 252 251 251 252 251 251 252 251 251 252 251 251 252 251 251 252 251 251 252 251 251 252 251 251 252 251 251 252 251 251 252 251 251 252 251 251 252 251 251 252 251 251 252 251 251 252 251 251 252 251 251 252 251 251 252 252 252 252 252 252 252 252 252 252 252 252 252 252 252 252 252 252 252 252 252 252 252 252 252 252 252 252 252 252 252 252 252 252 252 252 252 252 252 252 252 252 252 252 252 252 252 252 252 
252 252 252 252 252 252 252 252 252 252 252 252 252 252 252 252 252 252 252 252 252 252 252 252 252 252 252 252 252 252 252 252 252 252 252 252 252 252 252 252 252 252 252 252 252 252 252 252 252 252 252 252 252 252 252 252 252 252 252 252 252 252 252 252 252 252 252 252 252 252 252 252 252 252 252 252 252 252 252 252 252 252 252 252 252 252 252 252 252 252 252 252 252 252 252 252 252 252 252 252 252 252 252 252 252 252 252 252 252 252 252 252 252 252 252 252 252 252 252 252 252 252 252 252 252 252 252 252 252 252 252 252 252 252 252 252 252 252 252 252 252 252 252 252 252 252 252 252 252 252 252 252 252 252 252 252 252 252 252 252 252 252 252 252 252 252 252 252 252 252 252 252 252 252 252 252 252 252 252 252 252 252 252 252 252 252 252 252 252 
252 252 252 252 252 252 252 252 252 252 252 252 252 252 252 252 252 252 252 252 252 252 252 252 252 252 252 252 252 252 252 252 252 252 252 252 252 252 252 252 252 252 252 252 252 252 252 252 252 252 252 252 252 252 252 252 252 252 252 252 252 252 252 252 252 252 252 252 252 252 252 252 252 252 252 252 252 252 252 252 252 252 252 252 252 252 252 252 252 252 252 252 252 252 252 252 252 252 252 252 252 252 252 252 252 252 252 252 252 252 252 252 252 252 252 252 252 252 252 252 252 252 252 252 252 252 252 252 252 252 252 252 252 252 252 252 252 252 252 252 252 252 252 252 252 252 252 252 252 252 252 252 252 252 252 252 252 252 252 252 252 252 252 252 252 252 252 252 252 252 252 252 252 252 252 252 252 252 252 252 252 252 252 252 252 252 252 252 252 
252 252 252 252 252 252 252 252 252 252 252 252 252 252 252 252 252 252 252 252 252 252 252 252 252 252 252 252 252 252 252 252 252 252 252 252 252 252 252 252 252 252 252 252 252 252 252 252 252 252 252 252 252 252 252 252 252 252 252 252 252 252 252 252 252 252 252 252 252 252 252 252 252 252 252 252 252 252 252 252 252 252 252 252 252 252 252 252 252 252 252 252 252 252 252 252 252 252 252 252 252 252 252 252 252 252 252 252 252 252 252 252 252 252 252 252 252 252 252 252 252 252 252 252 252 252 252 252 252 252 252 252 252 252 252 252 252 252 252 252 252 252 252 252 252 252 252 252 252 252 252 252 252 252 252 252 252 252 252 252 252 252 252 252 252 252 252 252 252 252 252 252 252 252 252 252 252 252 252 252 252 252 252 252 252 252 252 252 252 
252 252 252 252 252 252 252 252 252 252 252 252 252 252 252 252 252 252 252 252 252 252 252 252 252 252 252 252 252 252 252 252 252 252 252 252 252 252 252 252 252 252 252 252 252 252 252 252 252 252 252 252 252 252 252 252 252 252 252 252 252 252 252 252 252 252 252 252 252 252 252 252 252 252 252 252 252 252 252 252 252 252 252 252 252 252 252 252 252 252 252 252 252 252 252 252 252 252 252 252 252 252 252 252 252 252 252 252 252 252 252 252 252 252 252 252 252 252 252 252 252 252 252 252 252 252 252 252 252 252 252 252 252 252 252 252 252 252 252 252 252 252 252 252 252 252 252 252 252 252 252 252 252 252 252 252 252 252 252 252 252 252 252 252 252 252 252 252 252 252 252 252 252 252 252 252 252 252 252 252 252 252 252 252 252 252 252 252 252 
252 252 252 252 252 252 252 252 252 252 252 252 252 252 252 252 252 252 252 252 252 252 252 252 252 252 252 252 252 252 252 252 252 252 252 252 252 252 252 252 252 252 252 252 252 252 252 252 252 252 252 252 252 252 252 252 252 252 252 252 252 252 252 252 252 252 252 252 252 252 252 252 252 252 252 252 252 252 252 252 252 252 252 252 252 252 252 252 252 252 252 252 252 252 252 252 252 252 252 252 252 252 252 252 252 252 252 252 252 252 252 252 252 252 252 252 252 252 252 252 252 252 252 252 252 252 252 252 252 252 252 252 252 252 252 252 252 252 252 252 252 252 252 252 252 252 252 252 252 252 252 252 252 252 252 252 252 252 252 252 252 252 252 252 252 252 252 252 252 252 252 252 252 252 252 252 252 252 252 252 252 252 252 252 252 252 252 252 252 
252 252 252 252 252 252 252 252 252 252 252 252 252 252 252 252 252 252 252 252 252 252 252 252 252 252 252 252 252 252 252 252 252 252 252 252 252 252 252 252 252 252 252 252 252 252 252 252 252 252 252 252 252 252 252 252 252 252 252 252 252 252 252 252 252 252 252 252 252 252 252 252 252 252 252 252 252 252 252 252 252 252 252 252 252 252 252 252 252 252 252 252 252 252 252 252 252 252 252 252 252 252 252 252 252 252 252 252 252 252 252 252 252 252 252 252 252 252 252 252 252 252 252 252 252 252 252 252 252 252 252 252 252 252 252 252 252 252 252 252 252 252 252 252 252 252 252 252 252 252 252 252 252 252 252 252 252 252 252 252 252 252 252 252 252 252 252 252 252 252 252 252 252 252 252 252 252 252 252 252 252 252 252 252 252 252 252 252 252 
252 252 252 252 252 252 252 252 252 252 252 252 252 252 252 252 252 252 252 252 252 252 252 252 252 252 252 252 252 252 252 252 252 252 252 252 252 252 252 252 252 252 252 252 252 252 252 252 252 252 252 252 252 252 252 252 252 252 252 252 252 252 252 252 252 252 252 252 252 252 252 252 252 252 252 252 252 252 252 252 252 252 252 252 252 252 252 252 252 252 252 252 252 252 252 252 252 252 252 252 252 252 252 252 252 252 252 252 252 252 252 252 252 252 252 252 252 252 252 252 252 252 252 252 252 252 252 252 252 252 252 252 252 252 252 252 252 252 252 252 252 252 252 252 252 252 252 252 252 252 252 252 252 252 252 252 252 252 252 252 252 252 252 252 252 252 252 252 252 252 252 252 252 252 252 252 252 252 252 252 252 252 252 252 252 252 252 252 252 
252 252 252 252 252 252 252 252 252 252 252 252 252 252 252 252 252 252 252 252 252 252 252 252 252 252 252 252 252 252 252 252 252 252 252 252 252 252 252 252 252 252 252 252 252 252 252 252 252 252 252 252 252 252 252 252 252 252 252 252 252 252 252 252 252 252 252 252 252 252 252 252 252 252 252 252 252 252 252 252 252 252 252 252 252 252 252 252 252 252 252 252 252 252 252 252 252 252 252 252 252 252 252 252 252 252 252 252 252 252 252 252 252 252 252 252 252 252 252 252 252 252 252 252 252 252 252 252 252 252 252 252 252 252 252 252 252 252 252 252 252 252 252 252 252 252 252 252 252 252 252 252 252 252 252 252 252 252 252 252 252 252 252 252 252 252 252 252 252 252 252 252 252 252 252 252 252 252 252 252 252 252 252 252 252 252 252 252 252 
