P3
63 63
255
252 252 252 252 252 252 252 252 252 252 252 252 252 252 252 252 252 252 252 252 252 252 252 252 252 252 252 252 252 252 252 252 252 252 252 252 252 252 252 252 252 252 252 252 252 252 252 252 251 251 251 251 251 251 251 251 251 251 251 251 251 251 251 251 251 251 251 251 251 251 251 251 251 251 251 251 251 251 251 251 251 251 251 251 251 251 251 251 251 251 251 251 251 251 251 251 251 251 251 251 251 251 251 251 251 251 251 251 251 251 251 251 251 251 251 251 251 251 251 251 251 251 251 251 251 251 251 251 251 251 251 251 251 251 251 251 251 251 251 251 251 251 251 251 251 251 251 251 251 251 251 251 251 251 251 251 251 251 251 251 251 251 251 251 251 251 251 251 251 251 251 251 251 251 251 251 251 251 251 251 251 251 251 251 251 251 251 251 251 
252 252 252 252 252 252 252 252 252 252 252 252 251 251 251 251 251 251 251 251 251 251 251 251 251 251 251 251 251 251 251 251 251 251 251 251 251 251 251 251 251 251 251 251 251 251 251 251 252 252 252 252 252 252 252 252 252 252 252 252 252 252 252 252 252 252 252 252 252 252 252 252 252 252 252 252 252 252 252 252 252 252 252 252 252 252 252 252 252 252 252 252 252 252 252 252 252 252 252 252 252 252 252 252 252 252 252 252 252 252 252 252 252 252 252 252 252 252 252 252 252 252 252 252 252 252 252 252 252 252 252 252 252 252 252 252 252 252 252 252 252 252 252 252 252 252 252 252 252 252 252 252 252 252 252 252 252 252 252 252 252 252 252 252 252 252 252 252 252 252 252 252 252 252 252 252 252 252 252 252 252 252 252 252 252 252 252 252 252 
252 252 252 252 252 252 252 252 252 252 252 252 251 251 251 251 251 251 251 251 251 251 251 251 251 251 251 251 251 251 251 251 251 251 251 251 251 251 251 251 251 251 251 251 251 251 251 251 252 252 252 252 252 252 252 252 252 252 252 252 252 252 252 252 252 252 252 252 252 252 252 252 252 252 252 252 252 252 252 252 252 252 252 252 252 252 252 252 252 252 252 252 252 252 252 252 252 252 252 252 252 252 252 252 252 252 252 252 252 252 252 252 252 252 252 252 252 252 252 252 252 252 252 252 252 252 252 252 252 252 252 252 252 252 252 252 252 252 252 252 252 252 252 252 252 252 252 252 252 252 252 252 252 252 252 252 252 252 252 252 252 252 252 252 252 252 252 252 252 252 252 252 252 252 252 252 252 252 252 252 252 252 252 252 252 252 252 252 252 
252 252 252 252 252 252 252 252 252 252 252 252 251 251 251 251 251 251 251 251 251 251 251 251 251 251 251 251 251 251 251 251 251 251 251 251 251 251 251 251 251 251 251 251 251 251 251 251 252 252 252 252 252 252 252 252 252 252 252 252 252 252 252 252 252 252 252 252 252 252 252 252 252 252 252 252 252 252 252 252 252 252 252 252 252 252 252 252 252 252 252 252 252 252 252 252 252 252 252 252 252 252 252 252 252 252 252 252 252 252 252 252 252 252 252 252 252 252 252 252 252 252 252 252 252 252 252 252 252 252 252 252 252 252 252 252 252 252 252 252 252 252 252 252 252 252 252 252 252 252 252 252 252 252 252 252 252 252 252 252 252 252 252 252 252 252 252 252 252 252 252 252 252 252 252 252 252 252 252 252 252 252 252 252 252 252 252 252 252 
252 252 252 251 251 251 251 251 251 251 251 251 252 252 252 252 252 252 252 252 252 252 252 252 252 252 252 252 252 252 252 252 252 252 252 252 252 252 252 252 252 252 252 252 252 252 252 252 252 252 252 252 252 252 251 251 251 251 251 251 251 251 251 251 251 251 251 251 251 251 251 251 251 251 251 251 251 251 251 251 251 251 251 251 251 251 251 251 251 251 251 251 251 251 251 251 251 251 251 251 251 251 251 251 251 251 251 251 251 251 251 251 251 251 251 251 251 251 251 251 251 251 251 251 251 251 251 251 251 251 251 251 251 251 251 251 251 251 251 251 251 251 251 251 251 251 251 251 251 251 251 251 251 251 251 251 251 251 251 251 251 251 251 251 251 251 251 251 251 251 251 252 252 252 252 252 252 252 252 252 252 252 252 252 252 252 252 252 252 
252 252 252 251 251 251 251 251 251 251 251 251 252 252 252 252 252 252 252 252 252 252 252 252 252 252 252 252 252 252 252 252 252 252 252 252 252 252 252 252 252 252 252 252 252 252 252 252 252 252 252 252 251 251 251 251 251 251 251 251 251 251 251 251 251 251 251 251 251 251 251 251 251 251 251 251 251 251 251 251 251 251 251 251 251 251 251 251 251 251 251 251 251 251 251 251 251 251 251 251 251 251 251 251 251 251 251 251 251 251 251 251 251 251 251 251 251 251 251 251 251 251 251 251 251 251 251 251 251 251 251 251 251 251 251 251 251 251 251 251 251 251 251 251 251 251 251 251 251 251 251 251 251 251 251 251 251 251 251 251 251 251 251 251 251 251 251 251 251 251 251 252 251 251 252 252 252 252 252 252 252 252 252 252 252 252 252 252 252 
252 252 252 251 251 251 251 251 251 251 251 251 252 252 252 252 252 252 252 252 252 252 252 252 252 252 252 252 252 252 252 252 252 252 252 252 252 252 252 252 252 252 252 252 252 252 252 252 252 251 251 251 251 251 251 251 251 251 251 251 251 250 250 251 250 250 251 250 250 251 250 250 251 250 250 251 249 250 251 249 250 251 249 250 251 249 250 251 249 250 251 249 250 251 249 250 251 249 250 251 249 250 251 249 250 251 249 250 251 249 250 251 249 250 251 249 250 251 249 250 251 249 250 251 249 250 251 249 250 251 249 250 251 249 250 251 249 250 251 249 250 251 249 250 251 249 250 251 249 250 251 249 250 251 250 250 251 250 250 251 250 250 251 250 250 251 251 251 251 251 251 251 251 251 252 251 251 252 252 252 252 252 252 252 252 252 252 252 252 
252 252 252 251 251 251 251 251 251 251 251 251 252 252 252 252 252 252 252 252 252 252 252 252 252 252 252 252 252 252 252 252 252 252 252 252 252 252 252 252 252 252 252 252 252 252 252 252 252 251 251 251 251 251 251 251 251 251 250 250 250 250 250 250 249 249 250 249 249 250 248 248 250 248 248 250 247 247 250 246 247 250 246 247 250 246 247 250 246 247 250 246 247 250 246 247 250 246 247 250 246 247 250 246 247 250 246 247 250 246 247 250 246 247 250 246 247 250 246 247 250 246 247 250 246 247 250 246 247 250 246 247 250 246 247 250 246 247 250 246 247 250 246 247 250 246 247 250 246 247 250 247 247 250 248 248 250 248 248 250 249 249 250 250 250 251 250 250 251 251 251 251 251 251 252 251 251 252 252 252 252 252 252 252 252 252 252 252 252 
252 252 252 251 251 251 251 251 251 251 251 251 252 252 252 252 252 252 252 252 252 252 252 252 252 252 252 252 252 252 252 252 252 252 252 252 252 252 252 252 252 252 252 252 252 252 252 252 252 251 251 251 251 251 251 251 251 251 250 250 250 249 250 250 249 249 250 248 248 250 246 246 250 243 244 250 240 241 250 238 239 250 236 238 250 236 238 250 236 238 250 236 238 250 236 238 250 236 238 250 236 238 250 236 238 250 236 238 250 236 238 250 236 238 250 236 238 250 236 238 250 236 238 250 236 238 250 236 238 250 236 238 250 236 238 250 236 238 250 236 238 250 236 238 250 236 238 250 238 239 250 241 242 250 243 244 250 246 246 250 248 248 250 249 250 251 250 250 251 251 251 251 251 251 252 251 251 252 252 252 252 252 252 252 252 252 252 252 252 
252 252 252 251 251 251 251 251 251 251 251 251 252 252 252 252 252 252 252 252 252 252 252 252 252 252 252 252 252 252 252 252 252 252 252 252 252 252 252 252 252 252 252 252 252 252 252 252 252 251 251 251 251 251 251 251 251 251 250 250 250 249 249 250 248 249 249 245 246 249 241 242 248 233 236 248 226 229 248 219 224 248 215 220 248 214 219 248 214 219 248 214 219 248 214 219 248 214 219 248 214 219 248 214 219 248 214 219 248 214 219 248 214 219 248 214 219 248 214 219 248 214 219 248 214 219 248 214 219 248 214 219 248 214 219 248 214 219 248 214 219 248 214 219 248 216 221 248 220 225 248 227 230 248 235 237 249 242 243 250 246 247 250 248 249 251 250 250 251 251 251 251 251 251 252 251 251 252 252 252 252 252 252 252 252 252 252 252 252 
252 252 252 251 251 251 251 251 251 251 251 251 252 252 252 252 252 252 252 252 252 252 252 252 252 252 252 252 252 252 252 252 252 252 252 252 252 252 252 252 252 252 252 252 252 252 252 252 252 251 251 251 251 251 251 251 251 251 250 250 250 249 249 249 246 247 249 242 243 248 232 234 247 218 222 247 201 209 246 189 198 246 180 191 246 177 188 246 176 187 246 176 187 246 176 187 246 176 187 246 176 187 246 176 187 246 176 187 246 176 187 246 176 187 246 176 187 246 176 187 246 176 187 246 176 187 246 176 187 246 176 187 246 176 187 246 176 187 246 176 187 246 177 188 246 182 192 246 191 200 247 204 212 247 221 225 249 234 237 249 243 244 250 247 248 251 250 250 251 251 251 251 251 251 252 251 251 252 252 252 252 252 252 252 252 252 252 252 252 
252 252 252 251 251 251 251 251 251 251 251 251 252 252 252 252 252 252 252 252 252 252 252 252 252 252 252 252 252 252 252 252 252 252 252 252 252 252 252 252 252 252 252 252 252 252 252 252 252 251 251 251 251 251 251 251 251 251 250 250 250 249 249 249 245 246 248 237 239 248 221 225 246 197 205 245 170 183 244 148 164 244 134 152 244 128 147 244 126 146 244 126 146 244 126 146 244 126 146 244 126 146 244 126 146 244 126 146 244 126 146 244 126 146 244 126 146 244 126 146 244 126 146 244 126 146 244 126 146 244 126 146 244 126 146 244 126 146 244 126 146 244 129 148 244 137 154 244 152 167 245 175 187 247 202 209 248 225 228 249 239 241 250 246 247 251 249 249 251 251 251 251 251 251 252 251 251 252 252 252 252 252 252 252 252 252 252 252 252 
252 252 252 251 251 251 251 251 251 251 251 251 252 252 252 252 252 252 252 252 252 252 252 252 252 252 252 252 252 252 252 252 252 252 252 252 252 252 252 252 252 252 252 252 252 252 252 252 252 251 251 251 251 251 251 251 251 251 250 250 250 248 248 249 243 245 248 232 235 247 210 216 246 177 188 244 139 156 242 108 130 242 89 114 242 80 106 242 76 104 242 76 104 242 76 104 242 76 104 242 76 104 242 76 104 242 76 104 242 76 104 242 76 104 242 76 104 242 76 104 242 76 104 242 76 104 242 76 104 242 76 104 242 76 104 242 76 104 242 77 104 242 81 108 242 92 117 242 114 135 244 147 162 246 184 194 247 216 221 249 235 238 250 245 246 251 249 249 251 251 251 251 251 251 252 251 251 252 252 252 252 252 252 252 252 252 252 252 252 
252 252 252 251 251 251 251 251 251 251 251 251 252 252 252 252 252 252 252 252 252 252 252 252 252 252 252 252 252 252 252 252 252 252 252 252 252 252 252 252 252 252 252 252 252 252 252 252 252 251 251 251 251 251 251 251 251 251 250 250 250 248 248 249 242 244 248 228 232 246 202 209 245 162 175 243 116 137 241 78 105 241 54 85 241 43 76 241 39 72 241 39 72 241 39 72 241 39 72 241 39 72 241 39 72 241 39 72 241 39 73 241 39 73 241 39 73 241 39 73 241 39 72 241 39 72 241 39 72 241 39 72 241 39 72 241 39 72 241 39 73 241 45 77 241 58 88 241 84 110 243 125 144 245 170 182 247 208 215 249 232 235 250 244 245 251 249 249 251 251 251 251 251 251 252 251 251 252 252 252 252 252 252 252 252 252 252 252 252 
252 252 252 251 251 251 251 251 251 251 251 251 252 252 252 252 252 252 252 252 252 252 252 252 252 252 252 252 252 252 252 252 252 252 252 252 252 252 252 252 252 252 252 252 252 252 252 252 252 251 251 251 251 251 251 251 251 251 250 250 250 248 248 249 242 243 248 227 230 246 197 205 244 153 167 242 103 125 241 60 90 241 34 68 241 21 57 241 17 54 241 17 54 241 16 54 241 16 54 241 17 54 241 17 54 241 17 54 241 17 55 241 17 55 241 17 55 241 17 55 241 17 54 241 17 54 241 17 54 241 16 54 241 16 54 241 17 54 241 17 54 241 23 59 241 38 72 241 68 96 243 112 133 245 162 175 247 204 211 249 231 234 250 244 245 251 249 249 251 251 251 251 251 251 252 251 251 252 252 252 252 252 252 252 252 252 252 252 252 
252 252 252 251 251 251 251 251 251 251 251 251 252 252 252 252 252 252 252 252 252 252 252 252 252 252 252 252 252 252 252 252 252 252 252 252 252 252 252 252 252 252 252 252 252 252 252 252 252 251 251 251 251 251 251 251 251 251 250 250 250 248 248 249 241 243 248 226 230 246 194 204 244 149 164 242 97 120 241 53 84 241 25 60 241 11 49 241 7 46 241 7 46 241 6 46 241 6 46 241 7 46 241 7 46 241 7 46 241 7 47 241 7 47 241 7 47 241 7 46 241 7 46 241 7 46 241 7 46 241 6 46 241 6 46 241 7 46 241 7 46 241 13 51 241 29 64 241 60 90 243 106 129 245 159 173 247 202 210 249 230 234 250 243 245 251 249 249 251 251 251 251 251 251 252 251 251 252 252 252 252 252 252 252 252 252 252 252 252 
252 252 252 252 252 252 252 252 252 252 252 252 252 252 252 252 252 252 252 252 252 252 252 252 252 252 252 252 252 252 252 252 252 252 252 252 252 252 252 252 252 252 252 252 252 252 252 252 252 251 251 251 251 251 251 251 251 251 250 250 250 248 248 249 241 243 248 225 230 246 194 204 244 147 164 242 94 120 241 50 82 241 22 58 241 8 46 241 4 43 241 4 43 241 3 43 241 3 43 241 4 43 241 4 43 241 4 43 241 4 44 241 4 44 241 4 44 241 4 44 241 4 43 241 4 43 241 4 43 241 3 43 241 3 43 241 4 43 241 5 43 241 10 48 241 27 61 241 58 88 243 104 128 245 157 172 247 202 210 249 230 234 250 243 245 251 249 249 251 251 251 251 251 251 252 251 251 252 252 252 252 252 252 252 252 252 252 252 252 
252 252 252 252 252 252 252 252 252 252 252 252 252 252 252 252 252 252 252 252 252 252 252 252 252 252 252 252 252 252 252 251 252 252 251 252 252 251 252 252 251 252 252 251 252 252 251 252 252 251 251 251 250 251 251 250 251 251 250 250 250 247 248 249 241 243 248 225 230 246 194 204 244 147 164 242 94 120 241 50 82 241 22 57 241 8 46 241 4 43 241 3 43 241 3 43 241 3 43 241 3 43 241 4 43 241 4 43 241 4 44 241 4 44 241 4 44 241 4 43 241 4 43 241 3 43 241 3 43 241 3 43 241 3 43 241 4 43 241 4 43 241 10 48 241 26 61 241 57 88 243 104 128 245 157 172 247 202 210 249 230 234 250 243 245 251 249 249 251 251 251 251 251 251 252 251 251 252 252 252 252 252 252 252 252 252 252 252 252 
252 252 252 252 252 252 252 252 252 252 252 252 252 252 252 252 252 252 252 252 252 252 252 252 252 252 252 251 251 252 251 251 252 251 251 252 251 251 252 251 251 252 251 251 252 251 251 252 251 251 251 251 250 251 250 249 251 250 249 250 250 247 248 249 241 243 248 225 230 246 194 204 244 147 164 242 94 120 241 50 82 241 21 57 241 8 46 241 3 43 241 3 43 241 2 43 241 2 43 241 3 43 241 3 43 241 3 43 241 3 44 241 3 44 241 3 44 241 3 43 241 3 43 241 3 43 241 2 43 241 2 43 241 3 43 241 3 43 241 3 43 241 10 48 241 26 61 241 57 88 243 104 128 245 157 172 247 202 210 249 230 234 250 243 245 251 249 249 251 251 251 251 251 251 252 251 251 252 252 252 252 252 252 252 252 252 252 252 252 
252 252 252 252 252 252 252 252 252 252 252 252 252 252 252 252 252 252 252 252 252 252 252 252 252 251 252 251 251 252 251 251 252 251 251 252 251 251 252 251 251 252 251 251 252 251 251 252 251 250 251 250 250 251 250 249 251 250 248 250 249 247 248 249 241 243 248 225 230 246 193 204 244 147 164 242 94 120 241 49 82 241 21 57 241 8 46 241 3 43 241 3 43 241 2 43 241 2 43 241 3 43 241 3 43 241 3 43 241 3 44 241 3 44 241 3 44 241 3 43 241 3 43 241 3 43 241 2 43 241 2 43 241 3 43 241 3 43 241 4 43 241 10 48 241 26 61 241 57 88 243 104 128 245 157 172 247 202 210 249 230 234 250 243 245 251 249 249 251 251 251 251 251 251 252 251 251 252 252 252 252 252 252 252 252 252 252 252 252 
252 252 252 252 252 252 252 252 252 252 252 252 252 252 252 252 252 252 252 252 252 252 252 252 251 251 252 251 251 252 251 251 252 251 250 252 251 250 252 250 250 252 250 250 252 250 250 252 250 250 251 250 249 251 249 249 251 249 248 250 249 246 248 248 240 243 248 224 230 246 193 204 244 146 164 242 93 120 241 49 82 241 21 57 241 8 46 241 4 43 241 3 43 241 2 43 241 2 43 241 3 43 241 3 43 241 3 43 241 4 44 241 4 44 241 4 44 241 3 43 241 3 43 241 3 43 241 3 43 241 2 43 241 3 43 241 3 43 241 5 43 241 10 48 241 26 61 241 57 88 243 104 128 245 157 172 247 202 210 249 230 234 250 243 245 251 249 249 251 251 251 251 251 251 252 251 251 252 252 252 252 252 252 252 252 252 252 252 252 
252 252 252 252 252 252 252 252 252 252 252 252 252 252 252 252 252 252 252 252 252 252 252 252 251 251 252 251 251 252 251 251 252 251 250 252 250 250 252 250 249 252 250 249 252 250 248 252 250 248 251 249 247 251 249 247 251 249 246 250 248 244 248 247 238 243 247 222 230 245 191 204 244 145 164 242 92 120 240 49 82 240 21 57 240 8 46 240 4 43 240 3 43 241 3 43 241 3 43 241 4 43 241 4 43 241 4 43 241 4 44 241 4 44 241 4 44 241 4 43 241 4 43 241 4 43 241 3 43 241 3 43 241 3 43 241 4 43 241 5 43 241 10 48 241 26 61 241 57 88 243 104 128 245 157 172 247 202 210 249 230 234 250 244 245 251 249 249 251 251 251 251 251 251 252 251 251 252 252 252 252 252 252 252 252 252 252 252 252 
252 252 252 252 252 252 252 252 252 252 252 252 252 252 252 252 252 252 252 252 252 252 252 252 251 251 252 251 251 252 251 251 252 251 250 252 250 249 252 249 249 252 249 247 252 249 246 252 248 244 251 248 242 251 247 241 251 247 239 250 247 237 248 246 231 243 246 216 230 245 186 204 243 141 164 242 90 120 240 47 82 240 21 57 240 8 46 240 4 43 240 3 43 241 3 43 241 3 43 241 4 43 241 4 43 241 4 43 241 4 44 241 4 44 241 4 44 241 4 43 241 4 43 241 4 43 241 3 43 241 3 43 241 3 43 241 4 43 241 5 43 241 10 48 241 26 61 241 57 88 243 104 128 245 157 172 247 202 210 249 230 234 250 244 245 251 249 249 251 251 251 251 251 251 252 251 251 252 252 252 252 252 252 252 252 252 252 252 252 
252 252 252 252 252 252 252 252 252 252 252 252 252 252 252 252 252 252 252 252 252 252 252 252 251 251 252 251 251 252 251 251 252 250 250 252 250 249 252 249 248 252 248 245 252 248 241 252 247 237 251 246 232 251 245 229 251 245 226 250 245 224 248 244 219 243 244 204 230 243 176 204 242 133 164 240 85 120 240 45 82 240 20 57 240 8 46 240 4 43 240 3 43 241 3 43 241 3 43 241 4 43 241 4 43 241 4 43 241 4 44 241 4 44 241 4 44 241 4 43 241 4 43 241 4 43 241 3 43 241 3 43 241 3 43 241 4 43 241 5 43 241 10 48 241 26 61 241 57 88 243 104 128 245 157 172 247 202 210 249 230 234 250 244 245 251 249 249 251 251 251 251 251 251 252 251 251 252 252 252 252 252 252 252 252 252 252 252 252 
252 252 252 252 252 252 252 252 252 252 252 252 252 252 252 252 252 252 252 252 252 252 252 252 251 251 252 251 251 252 251 251 252 250 250 252 249 249 252 249 246 252 248 242 252 247 235 252 245 226 251 244 217 251 243 211 251 243 208 250 243 204 248 242 199 243 242 186 230 241 160 204 240 122 164 239 78 120 239 41 82 239 18 57 239 8 46 240 4 43 240 3 43 241 3 43 241 3 43 241 4 43 241 4 43 241 4 43 241 4 44 241 4 44 241 4 44 241 4 43 241 4 43 241 4 43 241 3 43 241 3 43 241 3 43 241 4 43 241 5 43 241 10 48 241 26 61 241 57 88 243 104 128 245 157 172 247 202 210 249 230 234 250 243 245 251 249 249 251 251 251 251 251 251 252 251 251 252 252 252 252 252 252 252 252 252 252 252 252 
252 252 252 252 252 252 252 252 252 252 252 252 252 252 252 252 252 252 252 252 252 252 252 252 251 251 252 251 251 252 251 251 252 250 250 252 249 248 252 248 245 252 247 239 252 246 228 252 244 214 251 241 200 251 241 190 251 240 185 250 240 181 248 239 177 243 239 165 230 239 142 204 239 108 164 239 69 120 239 36 82 239 16 57 239 7 46 240 4 43 240 3 43 241 3 43 241 3 43 241 4 43 241 4 43 241 4 43 241 4 44 241 4 44 241 4 44 241 4 43 241 4 43 241 3 43 241 3 43 241 3 43 241 3 43 241 3 43 241 4 43 241 10 48 241 26 61 241 57 88 243 104 128 245 157 172 247 202 210 249 230 234 250 243 245 251 249 249 251 251 251 251 251 251 252 251 251 252 252 252 252 252 252 252 252 252 252 252 252 
252 252 252 252 252 252 252 252 252 252 252 252 252 252 252 252 252 252 252 252 252 252 252 252 251 251 252 251 251 252 251 251 252 250 250 252 249 248 252 248 244 252 247 236 252 245 222 252 242 203 251 240 185 251 238 172 251 237 165 250 237 161 248 237 156 243 237 146 230 237 126 204 237 95 164 238 61 120 239 32 82 239 14 57 239 6 46 240 3 43 240 3 43 241 2 43 241 2 43 241 3 43 241 3 43 241 3 43 241 3 44 241 3 44 241 3 44 241 3 43 241 3 43 241 3 43 241 2 43 241 2 43 241 3 43 241 3 43 241 3 43 241 10 48 241 26 61 241 57 88 243 104 128 245 157 172 247 202 210 249 230 234 250 243 245 251 249 249 251 251 251 251 251 251 252 251 251 252 252 252 252 252 252 252 252 252 252 252 252 
252 252 252 252 252 252 252 252 252 252 252 252 252 252 252 252 252 252 252 252 252 252 252 252 251 251 252 251 251 252 251 251 252 250 250 252 249 248 252 248 244 252 246 234 252 244 218 252 241 196 251 239 175 251 236 160 251 236 151 250 236 147 248 236 142 243 236 133 230 236 114 204 236 87 164 237 56 120 238 30 82 238 14 57 239 6 46 239 3 43 239 3 43 240 2 43 240 2 43 240 3 43 240 3 43 240 3 43 240 3 44 240 3 44 240 3 44 240 3 43 240 3 43 240 3 43 240 3 43 240 2 43 240 3 43 240 3 43 240 4 43 241 10 48 241 26 61 241 57 88 243 104 128 245 157 172 247 202 210 249 230 234 250 243 245 251 249 249 251 251 251 251 251 251 252 251 251 252 252 252 252 252 252 252 252 252 252 252 252 
252 252 252 252 252 252 252 252 252 252 252 252 252 252 252 252 252 252 252 252 252 252 252 252 251 251 252 251 251 252 251 251 252 250 250 252 249 248 252 248 244 252 246 233 252 244 215 252 241 192 251 238 170 251 236 153 251 236 144 250 236 140 248 236 135 243 236 126 230 236 109 204 236 83 164 237 53 120 237 29 82 238 14 57 239 6 46 239 4 43 239 3 43 239 3 43 240 3 43 240 4 43 240 4 43 240 4 43 240 4 44 240 4 44 240 4 44 240 4 43 240 4 43 240 4 43 240 3 43 240 3 43 240 3 43 240 4 43 240 5 43 241 10 48 241 26 61 241 57 88 243 104 128 245 157 172 247 202 210 249 230 234 250 243 245 251 249 249 251 251 251 251 251 251 252 251 251 252 252 252 252 252 252 252 252 252 252 252 252 
252 252 252 252 252 252 252 252 252 252 252 252 252 252 252 252 252 252 252 252 252 252 252 252 251 251 252 251 251 252 251 251 252 250 250 252 249 248 252 248 244 252 246 233 252 244 214 252 241 191 251 238 168 251 236 152 251 236 142 250 236 138 248 236 133 243 236 124 230 236 106 204 236 82 164 237 53 120 237 29 83 238 14 58 239 7 47 239 4 44 239 4 43 239 3 43 240 3 43 240 4 43 240 4 43 240 4 43 240 4 44 240 4 44 240 4 44 240 4 44 240 4 43 240 4 43 240 4 43 240 3 43 240 4 43 240 4 43 240 6 44 241 11 49 241 27 62 241 58 89 243 105 128 245 158 172 247 202 210 249 230 234 250 243 245 251 249 249 251 251 251 251 251 251 252 251 251 252 252 252 252 252 252 252 252 252 252 252 252 
252 252 252 252 252 252 252 252 252 252 252 252 252 252 252 252 252 252 252 252 252 252 252 252 251 251 252 251 251 252 251 251 252 250 250 252 249 248 252 248 244 252 246 233 252 244 214 252 241 191 251 238 168 251 236 152 251 236 142 250 236 137 248 236 133 243 236 124 230 236 107 204 236 82 165 236 54 122 237 30 85 237 16 62 238 9 51 238 7 47 238 7 47 239 6 47 239 6 47 239 7 47 239 7 47 239 7 47 239 7 48 239 7 48 239 7 48 239 7 48 239 8 47 239 8 47 239 8 47 240 8 47 240 9 47 240 9 47 240 10 48 241 16 53 241 31 66 241 62 92 243 107 130 245 159 173 247 203 210 249 231 234 250 244 245 251 249 249 251 251 251 251 251 251 252 251 251 252 252 252 252 252 252 252 252 252 252 252 252 
252 252 252 252 252 252 252 252 252 252 252 252 252 252 252 252 252 252 252 252 252 252 252 252 251 251 252 251 251 252 251 251 252 250 250 252 249 248 252 248 244 252 246 233 252 244 214 252 241 191 251 238 168 251 236 152 251 236 142 250 236 137 248 236 133 243 236 125 231 236 108 206 236 85 169 236 58 128 237 36 94 237 22 73 237 16 62 238 14 59 238 14 59 239 14 59 239 14 59 239 14 59 239 14 59 239 14 59 239 14 60 239 14 60 239 15 60 239 15 59 239 17 59 239 18 59 239 20 59 239 21 59 240 22 59 240 22 59 240 24 59 241 29 64 241 43 76 241 72 100 243 115 136 245 164 177 247 205 212 249 231 234 250 244 245 251 249 249 251 251 251 251 251 251 252 251 251 252 252 252 252 252 252 252 252 252 252 252 252 
252 252 252 252 252 252 252 252 252 252 252 252 252 252 252 252 252 252 252 252 252 252 252 252 251 251 252 251 251 252 251 251 252 250 250 252 249 248 252 248 244 252 246 233 252 244 214 252 241 191 251 238 168 251 236 152 251 236 142 250 236 137 248 236 133 244 236 126 233 236 111 211 236 90 178 236 67 143 236 48 113 236 36 94 237 30 84 237 28 82 237 28 82 238 28 82 238 28 82 238 28 82 238 28 82 238 28 82 238 28 82 238 28 82 238 30 82 238 32 82 239 36 82 239 41 82 239 44 82 239 47 82 240 48 82 240 49 82 240 51 82 241 55 86 241 68 97 241 93 118 243 131 149 245 174 185 247 210 216 249 233 236 250 245 245 251 249 249 251 251 251 251 251 251 252 251 251 252 252 252 252 252 252 252 252 252 252 252 252 
252 252 252 252 252 252 252 252 252 252 252 252 252 252 252 252 252 252 252 252 252 252 252 252 251 251 252 251 251 252 251 251 252 250 250 252 249 248 252 248 244 252 246 233 252 244 214 252 241 191 251 238 168 251 236 152 251 236 142 250 236 137 248 236 134 245 236 128 236 236 116 219 236 100 193 236 82 165 236 67 141 236 57 127 236 52 119 236 51 118 236 51 118 237 51 118 237 51 118 237 51 118 237 51 118 237 51 118 237 52 118 237 52 118 237 55 118 238 59 118 239 67 118 239 76 118 240 83 118 241 87 118 242 90 118 242 91 118 242 93 118 243 97 120 243 106 129 243 126 145 244 156 170 246 190 199 247 218 223 249 237 238 250 245 246 251 249 249 251 251 251 251 251 251 252 251 251 252 252 252 252 252 252 252 252 252 252 252 252 
252 252 252 252 252 252 252 252 252 252 252 252 252 252 252 252 252 252 252 252 252 252 252 252 251 251 252 251 251 252 251 251 252 250 250 252 249 248 252 248 244 252 246 233 252 244 214 252 241 191 251 238 168 251 236 152 251 236 142 250 236 138 249 236 135 246 236 130 240 236 122 228 236 112 211 236 99 192 236 89 176 236 83 166 236 79 161 236 79 160 236 79 160 236 79 160 236 79 160 236 79 160 236 79 160 236 79 160 236 79 160 236 80 160 236 84 160 237 92 160 239 104 160 240 118 160 241 129 160 243 136 160 243 140 160 244 142 160 244 143 160 245 146 162 245 152 168 245 166 179 246 185 196 247 209 215 248 228 231 249 241 241 250 246 247 251 249 249 251 251 251 251 251 251 252 251 251 252 252 252 252 252 252 252 252 252 252 252 252 
252 252 252 252 252 252 252 252 252 252 252 252 252 252 252 252 252 252 252 252 252 252 252 252 251 251 252 251 251 252 251 251 252 250 250 252 249 248 252 248 244 252 246 233 252 244 214 252 241 191 251 238 168 251 236 152 251 236 142 250 236 138 249 236 135 248 236 132 244 236 128 237 236 122 227 236 115 217 236 109 208 236 106 202 236 104 199 236 104 199 236 104 199 236 104 199 236 104 199 236 104 199 236 104 199 236 104 199 236 104 199 236 106 199 236 111 199 237 122 199 239 138 199 241 156 199 243 172 199 244 182 199 245 186 199 246 188 199 246 189 199 246 190 200 247 195 203 247 202 209 247 213 219 247 226 229 249 237 239 249 244 245 250 247 248 251 250 250 251 251 251 251 251 251 252 251 251 252 252 252 252 252 252 252 252 252 252 252 252 
252 252 252 252 252 252 252 252 252 252 252 252 252 252 252 252 252 252 252 252 252 252 252 252 251 251 252 251 251 252 251 251 252 250 250 252 249 248 252 248 244 252 246 233 252 244 214 252 241 191 251 238 168 251 236 152 251 236 142 250 236 138 249 236 136 249 236 134 246 236 132 243 236 129 238 236 126 234 236 124 229 236 122 227 236 122 227 236 122 227 236 122 227 236 122 227 236 122 227 236 122 227 236 122 227 236 122 227 236 122 227 236 124 227 236 130 227 237 143 227 239 161 227 242 183 227 244 202 227 246 213 227 247 218 227 247 220 227 248 221 227 248 222 227 249 224 228 249 228 230 249 233 235 249 238 239 249 243 244 250 247 247 250 248 249 251 250 250 251 251 251 251 251 251 252 251 251 252 252 252 252 252 252 252 252 252 252 252 252 
252 252 252 252 252 252 252 252 252 252 252 252 252 252 252 252 252 252 252 252 252 252 252 252 251 251 252 251 251 252 251 251 252 250 250 252 249 248 252 248 244 252 246 233 252 244 214 252 241 191 251 238 168 251 236 152 251 236 142 250 236 138 250 236 136 249 236 135 248 236 135 247 236 133 245 236 133 244 236 132 242 236 132 242 236 132 242 236 132 242 236 132 242 236 132 242 236 132 242 236 132 242 236 132 242 236 132 242 236 132 242 236 134 242 236 140 242 237 154 242 239 174 242 242 198 242 245 217 242 247 230 242 248 236 242 248 238 242 249 239 242 249 239 242 250 240 242 250 241 242 250 243 244 250 245 246 250 247 247 250 248 248 250 249 250 251 250 250 251 251 251 251 251 251 252 251 251 252 252 252 252 252 252 252 252 252 252 252 252 
252 252 252 252 252 252 252 252 252 252 252 252 252 252 252 252 252 252 252 252 252 252 252 252 251 251 252 251 251 252 251 251 252 250 250 252 249 248 252 248 244 252 246 233 252 244 214 252 241 191 251 238 168 251 236 152 251 236 142 250 236 138 250 236 136 249 236 136 249 236 136 249 236 136 249 236 136 248 236 136 248 236 136 248 236 136 248 236 136 248 236 136 248 236 136 248 236 136 248 236 136 248 236 136 248 236 136 248 236 136 248 236 138 248 236 144 248 237 158 248 240 180 248 243 204 248 245 224 248 247 238 248 248 243 248 249 245 248 249 246 248 249 246 248 250 247 248 250 247 248 250 248 248 250 248 249 250 249 249 250 249 249 250 250 250 251 250 250 251 251 251 251 251 251 252 251 251 252 252 252 252 252 252 252 252 252 252 252 252 
252 252 252 252 252 252 252 252 252 252 252 252 252 252 252 252 252 252 252 252 252 252 252 252 251 251 252 251 251 252 251 251 252 250 250 252 249 248 252 248 244 252 246 233 252 244 214 252 241 191 251 238 168 251 236 152 251 236 142 251 236 138 250 236 137 250 236 137 250 236 137 250 236 137 250 236 137 250 236 137 250 236 137 250 236 137 250 236 137 250 236 137 250 236 137 250 236 137 250 236 137 250 236 137 250 236 137 250 236 137 250 236 139 250 236 146 250 237 160 250 240 182 250 243 206 250 245 227 250 247 240 250 249 246 250 249 248 250 250 249 250 250 249 250 251 249 250 251 250 250 251 250 250 251 250 250 251 250 250 251 250 250 251 250 250 251 251 251 251 251 251 251 251 251 252 251 251 252 252 252 252 252 252 252 252 252 252 252 252 
252 252 252 252 252 252 252 252 252 252 252 252 252 252 252 252 252 252 252 252 252 252 252 252 251 251 252 251 251 252 251 251 252 250 250 252 249 248 252 248 244 252 246 233 252 244 214 252 241 191 252 238 168 251 236 152 251 236 142 251 236 138 251 236 138 251 236 138 251 236 138 251 236 138 251 236 138 251 236 138 251 236 138 251 236 138 251 236 138 251 236 138 251 236 138 251 236 138 251 236 138 251 236 138 251 236 138 251 236 138 251 236 140 251 236 146 251 237 161 251 240 183 251 243 207 251 246 228 251 248 241 251 249 247 251 250 249 251 250 250 251 250 250 251 251 250 251 251 251 251 251 251 251 251 251 251 251 251 251 251 251 251 251 251 251 251 251 251 251 251 251 252 251 251 252 252 252 252 252 252 252 252 252 252 252 252 252 252 252 
252 252 252 252 252 252 252 252 252 252 252 252 252 252 252 252 252 252 252 252 252 252 252 252 251 251 252 251 251 252 251 251 252 250 250 252 249 248 252 248 244 252 246 233 252 244 214 252 241 191 252 238 168 252 236 152 251 236 142 251 236 138 251 236 138 251 236 138 251 236 138 251 236 138 251 236 138 251 236 138 251 236 138 251 236 138 251 236 138 251 236 138 251 236 138 251 236 138 251 236 138 251 236 138 251 236 138 251 236 138 251 236 140 251 236 147 251 237 161 251 240 183 251 244 207 251 247 228 251 249 241 251 249 247 251 250 249 251 250 250 251 250 250 251 251 251 251 251 251 251 251 251 251 251 251 251 251 251 251 251 251 251 251 251 251 251 251 251 251 251 251 252 252 252 252 252 252 252 252 252 252 252 252 252 252 252 252 252 252 
252 252 252 252 252 252 252 252 252 252 252 252 252 252 252 252 252 252 252 252 252 252 252 252 251 251 252 251 251 252 251 251 252 250 250 252 249 248 252 248 244 252 246 233 252 244 214 252 241 191 252 238 168 252 236 152 252 236 142 252 236 139 252 236 138 252 236 138 252 236 138 252 236 138 252 236 138 252 236 138 252 236 138 252 236 138 252 236 138 252 236 138 252 236 138 252 236 138 252 236 138 252 236 138 252 236 138 252 236 138 252 236 141 252 236 148 252 237 162 252 241 184 252 244 208 252 247 228 252 249 241 252 250 248 252 251 250 252 251 251 252 251 251 252 252 251 252 252 252 252 252 252 252 252 252 252 252 252 252 252 252 252 252 252 252 252 252 252 252 252 252 252 252 252 252 252 252 252 252 252 252 252 252 252 252 252 252 252 252 
252 252 252 252 252 252 252 252 252 252 252 252 252 252 252 252 252 252 252 252 252 252 252 252 251 251 252 251 251 252 251 251 252 250 250 252 249 248 252 248 244 252 246 233 252 244 215 252 241 192 252 238 169 252 236 152 252 236 143 252 236 141 252 236 140 252 236 140 252 236 140 252 236 140 252 236 140 252 236 140 252 236 140 252 236 140 252 236 140 252 236 140 252 236 140 252 236 140 252 236 140 252 236 140 252 236 140 252 236 140 252 236 142 252 236 149 252 237 163 252 241 184 252 244 208 252 247 228 252 249 241 252 250 248 252 251 250 252 251 251 252 251 251 252 252 251 252 252 252 252 252 252 252 252 252 252 252 252 252 252 252 252 252 252 252 252 252 252 252 252 252 252 252 252 252 252 252 252 252 252 252 252 252 252 252 252 252 252 252 
252 252 252 252 252 252 252 252 252 252 252 252 252 252 252 252 252 252 252 252 252 252 252 252 251 251 252 251 251 252 251 251 252 250 250 252 249 248 252 248 244 252 246 233 252 244 216 252 241 194 252 238 173 252 236 156 252 236 148 252 236 146 252 236 145 252 236 145 252 236 145 252 236 145 252 236 145 252 236 145 252 236 145 252 236 145 252 236 145 252 236 145 252 236 145 252 236 145 252 236 145 252 236 145 252 236 145 252 236 145 252 236 147 252 236 153 252 237 167 252 241 187 252 244 209 252 247 229 252 249 242 252 250 248 252 251 250 252 251 251 252 251 251 252 252 251 252 252 252 252 252 252 252 252 252 252 252 252 252 252 252 252 252 252 252 252 252 252 252 252 252 252 252 252 252 252 252 252 252 252 252 252 252 252 252 252 252 252 252 
252 252 252 252 252 252 252 252 252 252 252 252 252 252 252 252 252 252 252 252 252 252 252 252 251 251 252 251 251 252 251 251 252 250 250 252 249 248 252 248 244 252 246 235 252 244 220 252 242 200 252 239 181 252 237 167 252 237 160 252 237 157 252 237 157 252 237 157 252 237 157 252 237 157 252 237 157 252 237 157 252 237 157 252 237 157 252 237 157 252 237 157 252 237 157 252 237 157 252 237 157 252 237 157 252 237 157 252 237 157 252 237 158 252 237 164 252 238 176 252 241 194 252 244 214 252 247 231 252 249 242 252 250 248 252 251 250 252 251 251 252 251 251 252 252 251 252 252 252 252 252 252 252 252 252 252 252 252 252 252 252 252 252 252 252 252 252 252 252 252 252 252 252 252 252 252 252 252 252 252 252 252 252 252 252 252 252 252 252 
252 252 252 252 252 252 252 252 252 252 252 252 252 252 252 252 252 252 252 252 252 252 252 252 251 251 252 251 251 252 251 251 252 250 250 252 249 248 252 248 245 252 247 238 252 245 226 252 243 210 252 241 194 252 239 183 252 239 178 252 239 176 252 239 176 252 239 176 252 239 176 252 239 176 252 239 176 252 239 176 252 239 176 252 239 176 252 239 176 252 239 176 252 239 176 252 239 176 252 239 176 252 239 176 252 239 176 252 239 176 252 239 177 252 239 181 252 240 191 252 242 205 252 244 221 252 247 234 252 249 243 252 250 248 252 251 250 252 251 251 252 251 251 252 252 251 252 252 252 252 252 252 252 252 252 252 252 252 252 252 252 252 252 252 252 252 252 252 252 252 252 252 252 252 252 252 252 252 252 252 252 252 252 252 252 252 252 252 252 
252 252 252 252 252 252 252 252 252 252 252 252 252 252 252 252 252 252 252 252 252 252 252 252 251 251 252 251 251 252 251 251 252 250 250 252 249 248 252 249 246 252 248 241 252 246 233 252 245 222 252 243 211 252 242 204 252 242 200 252 242 199 252 242 199 252 242 199 252 242 199 252 242 199 252 242 199 252 242 199 252 242 199 252 242 199 252 242 199 252 242 199 252 242 199 252 242 199 252 242 199 252 242 199 252 242 199 252 242 199 252 242 199 252 242 202 252 242 209 252 244 218 252 245 230 252 247 239 252 249 245 252 250 248 252 251 250 252 251 251 252 251 251 252 252 251 252 252 252 252 252 252 252 252 252 252 252 252 252 252 252 252 252 252 252 252 252 252 252 252 252 252 252 252 252 252 252 252 252 252 252 252 252 252 252 252 252 252 252 
252 252 252 252 252 252 252 252 252 252 252 252 252 252 252 252 252 252 252 252 252 252 252 252 251 251 252 251 251 252 251 251 252 250 250 252 250 249 252 249 247 252 248 244 252 247 240 252 246 233 252 246 227 252 245 223 252 245 221 252 245 221 252 245 221 252 245 221 252 245 221 252 245 221 252 245 221 252 245 221 252 245 221 252 245 221 252 245 221 252 245 221 252 245 221 252 245 221 252 245 221 252 245 221 252 245 221 252 245 221 252 245 221 252 245 222 252 245 226 252 246 231 252 247 238 252 248 243 252 249 246 252 250 249 252 251 250 252 251 251 252 251 251 252 252 251 252 252 252 252 252 252 252 252 252 252 252 252 252 252 252 252 252 252 252 252 252 252 252 252 252 252 252 252 252 252 252 252 252 252 252 252 252 252 252 252 252 252 252 
252 252 252 252 252 252 252 252 252 252 252 252 252 252 252 252 252 252 252 252 252 252 252 252 251 251 252 251 251 252 251 251 252 250 250 252 250 249 252 249 248 252 249 247 252 248 245 252 248 242 252 248 239 252 248 237 252 248 236 252 248 236 252 248 236 252 248 236 252 248 236 252 248 236 252 248 236 252 248 236 252 248 236 252 248 236 252 248 236 252 248 236 252 248 236 252 248 236 252 248 236 252 248 236 252 248 236 252 248 236 252 248 236 252 248 237 252 248 238 252 248 241 252 248 244 252 249 246 252 250 248 252 250 249 252 251 250 252 251 251 252 251 251 252 252 251 252 252 252 252 252 252 252 252 252 252 252 252 252 252 252 252 252 252 252 252 252 252 252 252 252 252 252 252 252 252 252 252 252 252 252 252 252 252 252 252 252 252 252 
252 252 252 252 252 252 252 252 252 252 252 252 252 252 252 252 252 252 252 252 252 252 252 252 251 251 252 251 251 252 251 251 252 251 250 252 250 249 252 250 249 252 249 248 252 249 248 252 249 246 252 249 245 252 249 245 252 249 245 252 249 245 252 249 245 252 249 245 252 249 245 252 249 245 252 249 245 252 249 245 252 249 245 252 249 245 252 249 245 252 249 245 252 249 245 252 249 245 252 249 245 252 249 245 252 249 245 252 249 245 252 249 245 252 249 245 252 249 246 252 249 246 252 249 247 252 249 248 252 250 249 252 250 250 252 251 250 252 251 251 252 251 251 252 252 251 252 252 252 252 252 252 252 252 252 252 252 252 252 252 252 252 252 252 252 252 252 252 252 252 252 252 252 252 252 252 252 252 252 252 252 252 252 252 252 252 252 252 252 
252 252 252 252 252 252 252 252 252 252 252 252 252 252 252 252 252 252 252 252 252 252 252 252 251 251 252 251 251 252 251 251 252 251 250 252 250 250 252 250 249 252 250 249 252 250 249 252 250 249 252 250 249 252 250 249 252 250 249 252 250 249 252 250 249 252 250 249 252 250 249 252 250 249 252 250 249 252 250 249 252 250 249 252 250 249 252 250 249 252 250 249 252 250 249 252 250 249 252 250 249 252 250 249 252 250 249 252 250 249 252 250 249 252 250 249 252 250 249 252 250 249 252 250 249 252 250 249 252 250 250 252 250 250 252 251 251 252 251 251 252 251 251 252 252 251 252 252 252 252 252 252 252 252 252 252 252 252 252 252 252 252 252 252 252 252 252 252 252 252 252 252 252 252 252 252 252 252 252 252 252 252 252 252 252 252 252 252 252 
252 252 252 252 252 252 252 252 252 252 252 252 252 252 252 252 252 252 252 252 252 252 252 252 252 251 252 251 251 252 251 251 252 251 250 252 251 250 252 251 250 252 251 250 252 251 250 252 251 250 252 251 250 252 251 250 252 251 250 252 251 250 252 251 250 252 251 250 252 251 250 252 251 250 252 251 250 252 251 250 252 251 250 252 251 250 252 251 250 252 251 250 252 251 250 252 251 250 252 251 250 252 251 250 252 251 250 252 251 250 252 251 250 252 251 250 252 251 250 252 251 250 252 251 250 252 251 250 252 251 250 252 251 250 252 251 251 252 251 251 252 251 251 252 252 252 252 252 252 252 252 252 252 252 252 252 252 252 252 252 252 252 252 252 252 252 252 252 252 252 252 252 252 252 252 252 252 252 252 252 252 252 252 252 252 252 252 252 252 
252 252 252 252 252 252 252 252 252 252 252 252 252 252 252 252 252 252 252 252 252 252 252 252 252 252 252 251 251 252 251 251 252 251 251 252 251 251 252 251 251 252 251 251 252 251 251 252 251 251 252 251 251 252 251 251 252 251 251 252 251 251 252 251 251 252 251 251 252 251 251 252 251 251 252 251 251 252 251 251 252 251 251 252 251 251 252 251 251 252 251 251 252 251 251 252 251 251 252 251 251 252 251 251 252 251 251 252 251 251 252 251 251 252 251 251 252 251 251 252 251 251 252 251 251 252 251 251 252 251 251 252 251 251 252 251 251 252 251 251 252 252 251 252 252 252 252 252 252 252 252 252 252 252 252 252 252 252 252 252 252 252 252 252 252 252 252 252 252 252 252 252 252 252 252 252 252 252 252 252 252 252 252 252 252 252 252 252 252 
252 252 252 252 252 252 252 252 252 252 252 252 252 252 252 252 252 252 252 252 252 252 252 252 252 252 252 252 251 252 251 251 252 251 251 252 251 251 252 251 251 252 251 251 252 251 251 252 251 251 252 251 251 252 251 251 252 251 251 252 251 251 252 251 251 252 251 251 252 251 251 252 251 251 252 251 251 252 251 251 252 251 251 252 251 251 252 251 251 252 251 251 252 251 251 252 251 251 252 251 251 252 251 251 252 251 251 252 251 251 252 251 251 252 251 251 252 251 251 252 251 251 252 251 251 252 251 251 252 251 251 252 251 251 252 251 251 252 251 251 252 252 252 252 252 252 252 252 252 252 252 252 252 252 252 252 252 252 252 252 252 252 252 252 252 252 252 252 252 252 252 252 252 252 252 252 252 252 252 252 252 252 252 252 252 252 252 252 252 
252 252 252 252 252 252 252 252 252 252 252 252 252 252 252 252 252 252 252 252 252 252 252 252 252 252 252 252 252 252 252 252 252 252 252 252 252 252 252 252 252 252 252 252 252 252 252 252 252 252 252 252 252 252 252 252 252 252 252 252 252 252 252 252 252 252 252 252 252 252 252 252 252 252 252 252 252 252 252 252 252 252 252 252 252 252 252 252 252 252 252 252 252 252 252 252 252 252 252 252 252 252 252 252 252 252 252 252 252 252 252 252 252 252 252 252 252 252 252 252 252 252 252 252 252 252 252 252 252 252 252 252 252 252 252 252 252 252 252 252 252 252 252 252 252 252 252 252 252 252 252 252 252 252 252 252 252 252 252 252 252 252 252 252 252 252 252 252 252 252 252 252 252 252 252 252 252 252 252 252 252 252 252 252 252 252 252 252 252 
252 252 252 252 252 252 252 252 252 252 252 252 252 252 252 252 252 252 252 252 252 252 252 252 252 252 252 252 252 252 252 252 252 252 252 252 252 252 252 252 252 252 252 252 252 252 252 252 252 252 252 252 252 252 252 252 252 252 252 252 252 252 252 252 252 252 252 252 252 252 252 252 252 252 252 252 252 252 252 252 252 252 252 252 252 252 252 252 252 252 252 252 252 252 252 252 252 252 252 252 252 252 252 252 252 252 252 252 252 252 252 252 252 252 252 252 252 252 252 252 252 252 252 252 252 252 252 252 252 252 252 252 252 252 252 252 252 252 252 252 252 252 252 252 252 252 252 252 252 252 252 252 252 252 252 252 252 252 252 252 252 252 252 252 252 252 252 252 252 252 252 252 252 252 252 252 252 252 252 252 252 252 252 252 252 252 252 252 252 
252 252 252 252 252 252 252 252 252 252 252 252 252 252 252 252 252 252 252 252 252 252 252 252 252 252 252 252 252 252 252 252 252 252 252 252 252 252 252 252 252 252 252 252 252 252 252 252 252 252 252 252 252 252 252 252 252 252 252 252 252 252 252 252 252 252 252 252 252 252 252 252 252 252 252 252 252 252 252 252 252 252 252 252 252 252 252 252 252 252 252 252 252 252 252 252 252 252 252 252 252 252 252 252 252 252 252 252 252 252 252 252 252 252 252 252 252 252 252 252 252 252 252 252 252 252 252 252 252 252 252 252 252 252 252 252 252 252 252 252 252 252 252 252 252 252 252 252 252 252 252 252 252 252 252 252 252 252 252 252 252 252 252 252 252 252 252 252 252 252 252 252 252 252 252 252 252 252 252 252 252 252 252 252 252 252 252 252 252 
252 252 252 252 252 252 252 252 252 252 252 252 252 252 252 252 252 252 252 252 252 252 252 252 252 252 252 252 252 252 252 252 252 252 252 252 252 252 252 252 252 252 252 252 252 252 252 252 252 252 252 252 252 252 252 252 252 252 252 252 252 252 252 252 252 252 252 252 252 252 252 252 252 252 252 252 252 252 252 252 252 252 252 252 252 252 252 252 252 252 252 252 252 252 252 252 252 252 252 252 252 252 252 252 252 252 252 252 252 252 252 252 252 252 252 252 252 252 252 252 252 252 252 252 252 252 252 252 252 252 252 252 252 252 252 252 252 252 252 252 252 252 252 252 252 252 252 252 252 252 252 252 252 252 252 252 252 252 252 252 252 252 252 252 252 252 252 252 252 252 252 252 252 252 252 252 252 252 252 252 252 252 252 252 252 252 252 252 252 
252 252 252 252 252 252 252 252 252 252 252 252 252 252 252 252 252 252 252 252 252 252 252 252 252 252 252 252 252 252 252 252 252 252 252 252 252 252 252 252 252 252 252 252 252 252 252 252 252 252 252 252 252 252 252 252 252 252 252 252 252 252 252 252 252 252 252 252 252 252 252 252 252 252 252 252 252 252 252 252 252 252 252 252 252 252 252 252 252 252 252 252 252 252 252 252 252 252 252 252 252 252 252 252 252 252 252 252 252 252 252 252 252 252 252 252 252 252 252 252 252 252 252 252 252 252 252 252 252 252 252 252 252 252 252 252 252 252 252 252 252 252 252 252 252 252 252 252 252 252 252 252 252 252 252 252 252 252 252 252 252 252 252 252 252 252 252 252 252 252 252 252 252 252 252 252 252 252 252 252 252 252 252 252 252 252 252 252 252 
252 252 252 252 252 252 252 252 252 252 252 252 252 252 252 252 252 252 252 252 252 252 252 252 252 252 252 252 252 252 252 252 252 252 252 252 252 252 252 252 252 252 252 252 252 252 252 252 252 252 252 252 252 252 252 252 252 252 252 252 252 252 252 252 252 252 252 252 252 252 252 252 252 252 252 252 252 252 252 252 252 252 252 252 252 252 252 252 252 252 252 252 252 252 252 252 252 252 252 252 252 252 252 252 252 252 252 252 252 252 252 252 252 252 252 252 252 252 252 252 252 252 252 252 252 252 252 252 252 252 252 252 252 252 252 252 252 252 252 252 252 252 252 252 252 252 252 252 252 252 252 252 252 252 252 252 252 252 252 252 252 252 252 252 252 252 252 252 252 252 252 252 252 252 252 252 252 252 252 252 252 252 252 252 252 252 252 252 252 
252 252 252 252 252 252 252 252 252 252 252 252 252 252 252 252 252 252 252 252 252 252 252 252 252 252 252 252 252 252 252 252 252 252 252 252 252 252 252 252 252 252 252 252 252 252 252 252 252 252 252 252 252 252 252 252 252 252 252 252 252 252 252 252 252 252 252 252 252 252 252 252 252 252 252 252 252 252 252 252 252 252 252 252 252 252 252 252 252 252 252 252 252 252 252 252 252 252 252 252 252 252 252 252 252 252 252 252 252 252 252 252 252 252 252 252 252 252 252 252 252 252 252 252 252 252 252 252 252 252 252 252 252 252 252 252 252 252 252 252 252 252 252 252 252 252 252 252 252 252 252 252 252 252 252 252 252 252 252 252 252 252 252 252 252 252 252 252 252 252 252 252 252 252 252 252 252 252 252 252 252 252 252 252 252 252 252 252 252 
252 252 252 252 252 252 252 252 252 252 252 252 252 252 252 252 252 252 252 252 252 252 252 252 252 252 252 252 252 252 252 252 252 252 252 252 252 252 252 252 252 252 252 252 252 252 252 252 252 252 252 252 252 252 252 252 252 252 252 252 252 252 252 252 252 252 252 252 252 252 252 252 252 252 252 252 252 252 252 252 252 252 252 252 252 252 252 252 252 252 252 252 252 252 252 252 252 252 252 252 252 252 252 252 252 252 252 252 252 252 252 252 252 252 252 252 252 252 252 252 252 252 252 252 252 252 252 252 252 252 252 252 252 252 252 252 252 252 252 252 252 252 252 252 252 252 252 252 252 252 252 252 252 252 252 252 252 252 252 252 252 252 252 252 252 252 252 252 252 252 252 252 252 252 252 252 252 252 252 252 252 252 252 252 252 252 252 252 252 
